<svg width="16" height="16" viewBox="0 0 16 16" fill="none" xmlns="http://www.w3.org/2000/svg">
<path d="M14.625 6.1875H9.5625V1.125C9.5625 0.527344 9.03516 0 8.4375 0H7.3125C6.67969 0 6.1875 0.527344 6.1875 1.125V6.1875H1.125C0.492188 6.1875 0 6.71484 0 7.3125V8.4375C0 9.07031 0.492188 9.5625 1.125 9.5625H6.1875V14.625C6.1875 15.2578 6.67969 15.75 7.3125 15.75H8.4375C9.03516 15.75 9.5625 15.2578 9.5625 14.625V9.5625H14.625C15.2227 9.5625 15.75 9.07031 15.75 8.4375V7.3125C15.75 6.71484 15.2227 6.1875 14.625 6.1875Z" fill="#2AA7FF"/>
</svg>
