<svg width="340" height="221" viewBox="0 0 340 221" fill="none" xmlns="http://www.w3.org/2000/svg">
<path d="M26 50.04V52.3H20.18V55.88H24.64V58.1H20.18V64H17.38V50.04H26ZM32.9055 64.18C31.8388 64.18 30.8788 63.9467 30.0255 63.48C29.1721 63 28.4988 62.3267 28.0055 61.46C27.5255 60.5933 27.2855 59.5933 27.2855 58.46C27.2855 57.3267 27.5321 56.3267 28.0255 55.46C28.5321 54.5933 29.2188 53.9267 30.0855 53.46C30.9521 52.98 31.9188 52.74 32.9855 52.74C34.0521 52.74 35.0188 52.98 35.8855 53.46C36.7521 53.9267 37.4321 54.5933 37.9255 55.46C38.4321 56.3267 38.6855 57.3267 38.6855 58.46C38.6855 59.5933 38.4255 60.5933 37.9055 61.46C37.3988 62.3267 36.7055 63 35.8255 63.48C34.9588 63.9467 33.9855 64.18 32.9055 64.18ZM32.9055 61.74C33.4121 61.74 33.8855 61.62 34.3255 61.38C34.7788 61.1267 35.1388 60.7533 35.4055 60.26C35.6721 59.7667 35.8055 59.1667 35.8055 58.46C35.8055 57.4067 35.5255 56.6 34.9655 56.04C34.4188 55.4667 33.7455 55.18 32.9455 55.18C32.1455 55.18 31.4721 55.4667 30.9255 56.04C30.3921 56.6 30.1255 57.4067 30.1255 58.46C30.1255 59.5133 30.3855 60.3267 30.9055 60.9C31.4388 61.46 32.1055 61.74 32.9055 61.74ZM43.5394 54.64C43.8994 54.0533 44.366 53.5933 44.9394 53.26C45.526 52.9267 46.1927 52.76 46.9394 52.76V55.7H46.1994C45.3194 55.7 44.6527 55.9067 44.1994 56.32C43.7594 56.7333 43.5394 57.4533 43.5394 58.48V64H40.7394V52.92H43.5394V54.64ZM52.0853 55.22V60.58C52.0853 60.9533 52.172 61.2267 52.3453 61.4C52.532 61.56 52.8386 61.64 53.2653 61.64H54.5653V64H52.8053C50.4453 64 49.2653 62.8533 49.2653 60.56V55.22H47.9453V52.92H49.2653V50.18H52.0853V52.92H54.5653V55.22H52.0853ZM57.9992 51.6C57.5059 51.6 57.0926 51.4467 56.7592 51.14C56.4392 50.82 56.2792 50.4267 56.2792 49.96C56.2792 49.4933 56.4392 49.1067 56.7592 48.8C57.0926 48.48 57.5059 48.32 57.9992 48.32C58.4926 48.32 58.8992 48.48 59.2192 48.8C59.5526 49.1067 59.7192 49.4933 59.7192 49.96C59.7192 50.4267 59.5526 50.82 59.2192 51.14C58.8992 51.4467 58.4926 51.6 57.9992 51.6ZM59.3792 52.92V64H56.5792V52.92H59.3792ZM66.3856 64.18C65.479 64.18 64.6656 64.02 63.9456 63.7C63.2256 63.3667 62.6523 62.92 62.2256 62.36C61.8123 61.8 61.5856 61.18 61.5456 60.5H64.3656C64.419 60.9267 64.6256 61.28 64.9856 61.56C65.359 61.84 65.819 61.98 66.3656 61.98C66.899 61.98 67.3123 61.8733 67.6056 61.66C67.9123 61.4467 68.0656 61.1733 68.0656 60.84C68.0656 60.48 67.879 60.2133 67.5056 60.04C67.1456 59.8533 66.5656 59.6533 65.7656 59.44C64.939 59.24 64.259 59.0333 63.7256 58.82C63.2056 58.6067 62.7523 58.28 62.3656 57.84C61.9923 57.4 61.8056 56.8067 61.8056 56.06C61.8056 55.4467 61.979 54.8867 62.3256 54.38C62.6856 53.8733 63.1923 53.4733 63.8456 53.18C64.5123 52.8867 65.2923 52.74 66.1856 52.74C67.5056 52.74 68.559 53.0733 69.3456 53.74C70.1323 54.3933 70.5656 55.28 70.6456 56.4H67.9656C67.9256 55.96 67.739 55.6133 67.4056 55.36C67.0856 55.0933 66.6523 54.96 66.1056 54.96C65.599 54.96 65.2056 55.0533 64.9256 55.24C64.659 55.4267 64.5256 55.6867 64.5256 56.02C64.5256 56.3933 64.7123 56.68 65.0856 56.88C65.459 57.0667 66.039 57.26 66.8256 57.46C67.6256 57.66 68.2856 57.8667 68.8056 58.08C69.3256 58.2933 69.7723 58.6267 70.1456 59.08C70.5323 59.52 70.7323 60.1067 70.7456 60.84C70.7456 61.48 70.5656 62.0533 70.2056 62.56C69.859 63.0667 69.3523 63.4667 68.6856 63.76C68.0323 64.04 67.2656 64.18 66.3856 64.18ZM89.3897 50.04V64H86.5897V58.06H80.6097V64H77.8097V50.04H80.6097V55.78H86.5897V50.04H89.3897ZM97.0656 64.18C95.999 64.18 95.039 63.9467 94.1856 63.48C93.3323 63 92.659 62.3267 92.1656 61.46C91.6856 60.5933 91.4456 59.5933 91.4456 58.46C91.4456 57.3267 91.6923 56.3267 92.1856 55.46C92.6923 54.5933 93.379 53.9267 94.2456 53.46C95.1123 52.98 96.079 52.74 97.1456 52.74C98.2123 52.74 99.179 52.98 100.046 53.46C100.912 53.9267 101.592 54.5933 102.086 55.46C102.592 56.3267 102.846 57.3267 102.846 58.46C102.846 59.5933 102.586 60.5933 102.066 61.46C101.559 62.3267 100.866 63 99.9856 63.48C99.119 63.9467 98.1456 64.18 97.0656 64.18ZM97.0656 61.74C97.5723 61.74 98.0456 61.62 98.4856 61.38C98.939 61.1267 99.299 60.7533 99.5656 60.26C99.8323 59.7667 99.9656 59.1667 99.9656 58.46C99.9656 57.4067 99.6856 56.6 99.1256 56.04C98.579 55.4667 97.9056 55.18 97.1056 55.18C96.3056 55.18 95.6323 55.4667 95.0856 56.04C94.5523 56.6 94.2856 57.4067 94.2856 58.46C94.2856 59.5133 94.5456 60.3267 95.0656 60.9C95.599 61.46 96.2656 61.74 97.0656 61.74ZM109.14 64.18C108.233 64.18 107.42 64.02 106.7 63.7C105.98 63.3667 105.406 62.92 104.98 62.36C104.566 61.8 104.34 61.18 104.3 60.5H107.12C107.173 60.9267 107.38 61.28 107.74 61.56C108.113 61.84 108.573 61.98 109.12 61.98C109.653 61.98 110.066 61.8733 110.36 61.66C110.666 61.4467 110.82 61.1733 110.82 60.84C110.82 60.48 110.633 60.2133 110.26 60.04C109.9 59.8533 109.32 59.6533 108.52 59.44C107.693 59.24 107.013 59.0333 106.48 58.82C105.96 58.6067 105.506 58.28 105.12 57.84C104.746 57.4 104.56 56.8067 104.56 56.06C104.56 55.4467 104.733 54.8867 105.08 54.38C105.44 53.8733 105.946 53.4733 106.6 53.18C107.266 52.8867 108.046 52.74 108.94 52.74C110.26 52.74 111.313 53.0733 112.1 53.74C112.886 54.3933 113.32 55.28 113.4 56.4H110.72C110.68 55.96 110.493 55.6133 110.16 55.36C109.84 55.0933 109.406 54.96 108.86 54.96C108.353 54.96 107.96 55.0533 107.68 55.24C107.413 55.4267 107.28 55.6867 107.28 56.02C107.28 56.3933 107.466 56.68 107.84 56.88C108.213 57.0667 108.793 57.26 109.58 57.46C110.38 57.66 111.04 57.8667 111.56 58.08C112.08 58.2933 112.526 58.6267 112.9 59.08C113.286 59.52 113.486 60.1067 113.5 60.84C113.5 61.48 113.32 62.0533 112.96 62.56C112.613 63.0667 112.106 63.4667 111.44 63.76C110.786 64.04 110.02 64.18 109.14 64.18ZM118.598 54.52C118.958 54.0133 119.451 53.5933 120.078 53.26C120.718 52.9133 121.445 52.74 122.258 52.74C123.205 52.74 124.058 52.9733 124.818 53.44C125.591 53.9067 126.198 54.5733 126.638 55.44C127.091 56.2933 127.318 57.2867 127.318 58.42C127.318 59.5533 127.091 60.56 126.638 61.44C126.198 62.3067 125.591 62.98 124.818 63.46C124.058 63.94 123.205 64.18 122.258 64.18C121.445 64.18 120.725 64.0133 120.098 63.68C119.485 63.3467 118.985 62.9267 118.598 62.42V69.28H115.798V52.92H118.598V54.52ZM124.458 58.42C124.458 57.7533 124.318 57.18 124.038 56.7C123.771 56.2067 123.411 55.8333 122.958 55.58C122.518 55.3267 122.038 55.2 121.518 55.2C121.011 55.2 120.531 55.3333 120.078 55.6C119.638 55.8533 119.278 56.2267 118.998 56.72C118.731 57.2133 118.598 57.7933 118.598 58.46C118.598 59.1267 118.731 59.7067 118.998 60.2C119.278 60.6933 119.638 61.0733 120.078 61.34C120.531 61.5933 121.011 61.72 121.518 61.72C122.038 61.72 122.518 61.5867 122.958 61.32C123.411 61.0533 123.771 60.6733 124.038 60.18C124.318 59.6867 124.458 59.1 124.458 58.42ZM130.773 51.6C130.279 51.6 129.866 51.4467 129.533 51.14C129.213 50.82 129.053 50.4267 129.053 49.96C129.053 49.4933 129.213 49.1067 129.533 48.8C129.866 48.48 130.279 48.32 130.773 48.32C131.266 48.32 131.673 48.48 131.993 48.8C132.326 49.1067 132.493 49.4933 132.493 49.96C132.493 50.4267 132.326 50.82 131.993 51.14C131.673 51.4467 131.266 51.6 130.773 51.6ZM132.153 52.92V64H129.353V52.92H132.153ZM138.179 55.22V60.58C138.179 60.9533 138.266 61.2267 138.439 61.4C138.626 61.56 138.932 61.64 139.359 61.64H140.659V64H138.899C136.539 64 135.359 62.8533 135.359 60.56V55.22H134.039V52.92H135.359V50.18H138.179V52.92H140.659V55.22H138.179ZM141.953 58.42C141.953 57.3 142.173 56.3067 142.613 55.44C143.066 54.5733 143.673 53.9067 144.433 53.44C145.206 52.9733 146.066 52.74 147.013 52.74C147.84 52.74 148.56 52.9067 149.173 53.24C149.8 53.5733 150.3 53.9933 150.673 54.5V52.92H153.493V64H150.673V62.38C150.313 62.9 149.813 63.3333 149.173 63.68C148.546 64.0133 147.82 64.18 146.993 64.18C146.06 64.18 145.206 63.94 144.433 63.46C143.673 62.98 143.066 62.3067 142.613 61.44C142.173 60.56 141.953 59.5533 141.953 58.42ZM150.673 58.46C150.673 57.78 150.54 57.2 150.273 56.72C150.006 56.2267 149.646 55.8533 149.193 55.6C148.74 55.3333 148.253 55.2 147.733 55.2C147.213 55.2 146.733 55.3267 146.293 55.58C145.853 55.8333 145.493 56.2067 145.213 56.7C144.946 57.18 144.813 57.7533 144.813 58.42C144.813 59.0867 144.946 59.6733 145.213 60.18C145.493 60.6733 145.853 61.0533 146.293 61.32C146.746 61.5867 147.226 61.72 147.733 61.72C148.253 61.72 148.74 61.5933 149.193 61.34C149.646 61.0733 150.006 60.7 150.273 60.22C150.54 59.7267 150.673 59.14 150.673 58.46ZM159.028 49.2V64H156.228V49.2H159.028ZM173.76 64L170.68 58.56H169.36V64H166.56V50.04H171.8C172.88 50.04 173.8 50.2333 174.56 50.62C175.32 50.9933 175.886 51.5067 176.26 52.16C176.646 52.8 176.84 53.52 176.84 54.32C176.84 55.24 176.573 56.0733 176.04 56.82C175.506 57.5533 174.713 58.06 173.66 58.34L177 64H173.76ZM169.36 56.46H171.7C172.46 56.46 173.026 56.28 173.4 55.92C173.773 55.5467 173.96 55.0333 173.96 54.38C173.96 53.74 173.773 53.2467 173.4 52.9C173.026 52.54 172.46 52.36 171.7 52.36H169.36V56.46ZM180.792 51.6C180.299 51.6 179.886 51.4467 179.552 51.14C179.232 50.82 179.072 50.4267 179.072 49.96C179.072 49.4933 179.232 49.1067 179.552 48.8C179.886 48.48 180.299 48.32 180.792 48.32C181.286 48.32 181.692 48.48 182.012 48.8C182.346 49.1067 182.512 49.4933 182.512 49.96C182.512 50.4267 182.346 50.82 182.012 51.14C181.692 51.4467 181.286 51.6 180.792 51.6ZM182.172 52.92V64H179.372V52.92H182.172ZM184.219 58.46C184.219 57.3133 184.452 56.3133 184.919 55.46C185.385 54.5933 186.032 53.9267 186.859 53.46C187.685 52.98 188.632 52.74 189.699 52.74C191.072 52.74 192.205 53.0867 193.099 53.78C194.005 54.46 194.612 55.42 194.919 56.66H191.899C191.739 56.18 191.465 55.8067 191.079 55.54C190.705 55.26 190.239 55.12 189.679 55.12C188.879 55.12 188.245 55.4133 187.779 56C187.312 56.5733 187.079 57.3933 187.079 58.46C187.079 59.5133 187.312 60.3333 187.779 60.92C188.245 61.4933 188.879 61.78 189.679 61.78C190.812 61.78 191.552 61.2733 191.899 60.26H194.919C194.612 61.46 194.005 62.4133 193.099 63.12C192.192 63.8267 191.059 64.18 189.699 64.18C188.632 64.18 187.685 63.9467 186.859 63.48C186.032 63 185.385 62.3333 184.919 61.48C184.452 60.6133 184.219 59.6067 184.219 58.46ZM203.21 52.76C204.05 52.76 204.797 52.9467 205.45 53.32C206.103 53.68 206.61 54.22 206.97 54.94C207.343 55.6467 207.53 56.5 207.53 57.5V64H204.73V57.88C204.73 57 204.51 56.3267 204.07 55.86C203.63 55.38 203.03 55.14 202.27 55.14C201.497 55.14 200.883 55.38 200.43 55.86C199.99 56.3267 199.77 57 199.77 57.88V64H196.97V49.2H199.77V54.3C200.13 53.82 200.61 53.4467 201.21 53.18C201.81 52.9 202.477 52.76 203.21 52.76ZM223.953 52.76C225.313 52.76 226.406 53.18 227.233 54.02C228.073 54.8467 228.493 56.0067 228.493 57.5V64H225.693V57.88C225.693 57.0133 225.473 56.3533 225.033 55.9C224.593 55.4333 223.993 55.2 223.233 55.2C222.473 55.2 221.866 55.4333 221.413 55.9C220.973 56.3533 220.753 57.0133 220.753 57.88V64H217.953V57.88C217.953 57.0133 217.733 56.3533 217.293 55.9C216.853 55.4333 216.253 55.2 215.493 55.2C214.719 55.2 214.106 55.4333 213.653 55.9C213.213 56.3533 212.993 57.0133 212.993 57.88V64H210.193V52.92H212.993V54.26C213.353 53.7933 213.813 53.4267 214.373 53.16C214.946 52.8933 215.573 52.76 216.253 52.76C217.119 52.76 217.893 52.9467 218.573 53.32C219.253 53.68 219.779 54.2 220.153 54.88C220.513 54.24 221.033 53.7267 221.713 53.34C222.406 52.9533 223.153 52.76 223.953 52.76ZM236.07 64.18C235.003 64.18 234.043 63.9467 233.19 63.48C232.336 63 231.663 62.3267 231.17 61.46C230.69 60.5933 230.45 59.5933 230.45 58.46C230.45 57.3267 230.696 56.3267 231.19 55.46C231.696 54.5933 232.383 53.9267 233.25 53.46C234.116 52.98 235.083 52.74 236.15 52.74C237.216 52.74 238.183 52.98 239.05 53.46C239.916 53.9267 240.596 54.5933 241.09 55.46C241.596 56.3267 241.85 57.3267 241.85 58.46C241.85 59.5933 241.59 60.5933 241.07 61.46C240.563 62.3267 239.87 63 238.99 63.48C238.123 63.9467 237.15 64.18 236.07 64.18ZM236.07 61.74C236.576 61.74 237.05 61.62 237.49 61.38C237.943 61.1267 238.303 60.7533 238.57 60.26C238.836 59.7667 238.97 59.1667 238.97 58.46C238.97 57.4067 238.69 56.6 238.13 56.04C237.583 55.4667 236.91 55.18 236.11 55.18C235.31 55.18 234.636 55.4667 234.09 56.04C233.556 56.6 233.29 57.4067 233.29 58.46C233.29 59.5133 233.55 60.3267 234.07 60.9C234.603 61.46 235.27 61.74 236.07 61.74ZM250.043 52.76C251.363 52.76 252.43 53.18 253.243 54.02C254.057 54.8467 254.463 56.0067 254.463 57.5V64H251.663V57.88C251.663 57 251.443 56.3267 251.003 55.86C250.563 55.38 249.963 55.14 249.203 55.14C248.43 55.14 247.817 55.38 247.363 55.86C246.923 56.3267 246.703 57 246.703 57.88V64H243.903V52.92H246.703V54.3C247.077 53.82 247.55 53.4467 248.123 53.18C248.71 52.9 249.35 52.76 250.043 52.76ZM256.406 58.42C256.406 57.3 256.626 56.3067 257.066 55.44C257.519 54.5733 258.133 53.9067 258.906 53.44C259.679 52.9733 260.539 52.74 261.486 52.74C262.206 52.74 262.893 52.9 263.546 53.22C264.199 53.5267 264.719 53.94 265.106 54.46V49.2H267.946V64H265.106V62.36C264.759 62.9067 264.273 63.3467 263.646 63.68C263.019 64.0133 262.293 64.18 261.466 64.18C260.533 64.18 259.679 63.94 258.906 63.46C258.133 62.98 257.519 62.3067 257.066 61.44C256.626 60.56 256.406 59.5533 256.406 58.42ZM265.126 58.46C265.126 57.78 264.993 57.2 264.726 56.72C264.459 56.2267 264.099 55.8533 263.646 55.6C263.193 55.3333 262.706 55.2 262.186 55.2C261.666 55.2 261.186 55.3267 260.746 55.58C260.306 55.8333 259.946 56.2067 259.666 56.7C259.399 57.18 259.266 57.7533 259.266 58.42C259.266 59.0867 259.399 59.6733 259.666 60.18C259.946 60.6733 260.306 61.0533 260.746 61.32C261.199 61.5867 261.679 61.72 262.186 61.72C262.706 61.72 263.193 61.5933 263.646 61.34C264.099 61.0733 264.459 60.7 264.726 60.22C264.993 59.7267 265.126 59.14 265.126 58.46ZM282.646 64L279.566 58.56H278.246V64H275.446V50.04H280.686C281.766 50.04 282.686 50.2333 283.446 50.62C284.206 50.9933 284.773 51.5067 285.146 52.16C285.533 52.8 285.726 53.52 285.726 54.32C285.726 55.24 285.46 56.0733 284.926 56.82C284.393 57.5533 283.6 58.06 282.546 58.34L285.886 64H282.646ZM278.246 56.46H280.586C281.346 56.46 281.913 56.28 282.286 55.92C282.66 55.5467 282.846 55.0333 282.846 54.38C282.846 53.74 282.66 53.2467 282.286 52.9C281.913 52.54 281.346 52.36 280.586 52.36H278.246V56.46ZM293.179 64.18C292.112 64.18 291.152 63.9467 290.299 63.48C289.446 63 288.772 62.3267 288.279 61.46C287.799 60.5933 287.559 59.5933 287.559 58.46C287.559 57.3267 287.806 56.3267 288.299 55.46C288.806 54.5933 289.492 53.9267 290.359 53.46C291.226 52.98 292.192 52.74 293.259 52.74C294.326 52.74 295.292 52.98 296.159 53.46C297.026 53.9267 297.706 54.5933 298.199 55.46C298.706 56.3267 298.959 57.3267 298.959 58.46C298.959 59.5933 298.699 60.5933 298.179 61.46C297.672 62.3267 296.979 63 296.099 63.48C295.232 63.9467 294.259 64.18 293.179 64.18ZM293.179 61.74C293.686 61.74 294.159 61.62 294.599 61.38C295.052 61.1267 295.412 60.7533 295.679 60.26C295.946 59.7667 296.079 59.1667 296.079 58.46C296.079 57.4067 295.799 56.6 295.239 56.04C294.692 55.4667 294.019 55.18 293.219 55.18C292.419 55.18 291.746 55.4667 291.199 56.04C290.666 56.6 290.399 57.4067 290.399 58.46C290.399 59.5133 290.659 60.3267 291.179 60.9C291.712 61.46 292.379 61.74 293.179 61.74ZM300.293 58.42C300.293 57.3 300.513 56.3067 300.953 55.44C301.406 54.5733 302.013 53.9067 302.773 53.44C303.546 52.9733 304.406 52.74 305.353 52.74C306.179 52.74 306.899 52.9067 307.513 53.24C308.139 53.5733 308.639 53.9933 309.013 54.5V52.92H311.833V64H309.013V62.38C308.653 62.9 308.153 63.3333 307.513 63.68C306.886 64.0133 306.159 64.18 305.333 64.18C304.399 64.18 303.546 63.94 302.773 63.46C302.013 62.98 301.406 62.3067 300.953 61.44C300.513 60.56 300.293 59.5533 300.293 58.42ZM309.013 58.46C309.013 57.78 308.879 57.2 308.613 56.72C308.346 56.2267 307.986 55.8533 307.533 55.6C307.079 55.3333 306.593 55.2 306.073 55.2C305.553 55.2 305.073 55.3267 304.633 55.58C304.193 55.8333 303.833 56.2067 303.553 56.7C303.286 57.18 303.153 57.7533 303.153 58.42C303.153 59.0867 303.286 59.6733 303.553 60.18C303.833 60.6733 304.193 61.0533 304.633 61.32C305.086 61.5867 305.566 61.72 306.073 61.72C306.593 61.72 307.079 61.5933 307.533 61.34C307.986 61.0733 308.346 60.7 308.613 60.22C308.879 59.7267 309.013 59.14 309.013 58.46ZM313.847 58.42C313.847 57.3 314.067 56.3067 314.507 55.44C314.961 54.5733 315.574 53.9067 316.348 53.44C317.121 52.9733 317.981 52.74 318.928 52.74C319.648 52.74 320.334 52.9 320.988 53.22C321.641 53.5267 322.161 53.94 322.548 54.46V49.2H325.388V64H322.548V62.36C322.201 62.9067 321.714 63.3467 321.088 63.68C320.461 64.0133 319.734 64.18 318.908 64.18C317.974 64.18 317.121 63.94 316.348 63.46C315.574 62.98 314.961 62.3067 314.507 61.44C314.067 60.56 313.847 59.5533 313.847 58.42ZM322.568 58.46C322.568 57.78 322.434 57.2 322.168 56.72C321.901 56.2267 321.541 55.8533 321.088 55.6C320.634 55.3333 320.148 55.2 319.628 55.2C319.108 55.2 318.628 55.3267 318.188 55.58C317.748 55.8333 317.388 56.2067 317.108 56.7C316.841 57.18 316.708 57.7533 316.708 58.42C316.708 59.0867 316.841 59.6733 317.108 60.18C317.388 60.6733 317.748 61.0533 318.188 61.32C318.641 61.5867 319.121 61.72 319.628 61.72C320.148 61.72 320.634 61.5933 321.088 61.34C321.541 61.0733 321.901 60.7 322.168 60.22C322.434 59.7267 322.568 59.14 322.568 58.46Z" fill="#14BEF0"/>
<path d="M22.818 94.8101C23.3873 94.9314 23.8447 95.2161 24.19 95.6641C24.5353 96.1028 24.708 96.6068 24.708 97.1761C24.708 97.9974 24.4187 98.6508 23.84 99.1361C23.2707 99.6121 22.4727 99.8501 21.446 99.8501H16.868V90.0221H21.292C22.2907 90.0221 23.07 90.2508 23.63 90.7081C24.1993 91.1654 24.484 91.7861 24.484 92.5701C24.484 93.1488 24.33 93.6294 24.022 94.0121C23.7233 94.3948 23.322 94.6608 22.818 94.8101ZM19.262 93.9981H20.83C21.222 93.9981 21.5207 93.9141 21.726 93.7461C21.9407 93.5688 22.048 93.3121 22.048 92.9761C22.048 92.6401 21.9407 92.3834 21.726 92.2061C21.5207 92.0288 21.222 91.9401 20.83 91.9401H19.262V93.9981ZM21.026 97.9181C21.4273 97.9181 21.7353 97.8294 21.95 97.6521C22.174 97.4654 22.286 97.1994 22.286 96.8541C22.286 96.5088 22.1693 96.2381 21.936 96.0421C21.712 95.8461 21.3993 95.7481 20.998 95.7481H19.262V97.9181H21.026ZM25.6205 95.9301C25.6205 95.1274 25.7698 94.4228 26.0685 93.8161C26.3765 93.2094 26.7918 92.7428 27.3145 92.4161C27.8372 92.0894 28.4205 91.9261 29.0645 91.9261C29.6152 91.9261 30.0958 92.0381 30.5065 92.2621C30.9265 92.4861 31.2485 92.7801 31.4725 93.1441V92.0381H33.8665V99.8501H31.4725V98.7441C31.2392 99.1081 30.9125 99.4021 30.4925 99.6261C30.0818 99.8501 29.6012 99.9621 29.0505 99.9621C28.4158 99.9621 27.8372 99.7988 27.3145 99.4721C26.7918 99.1361 26.3765 98.6648 26.0685 98.0581C25.7698 97.4421 25.6205 96.7328 25.6205 95.9301ZM31.4725 95.9441C31.4725 95.3468 31.3045 94.8754 30.9685 94.5301C30.6418 94.1848 30.2405 94.0121 29.7645 94.0121C29.2885 94.0121 28.8825 94.1848 28.5465 94.5301C28.2198 94.8661 28.0565 95.3328 28.0565 95.9301C28.0565 96.5274 28.2198 97.0034 28.5465 97.3581C28.8825 97.7034 29.2885 97.8761 29.7645 97.8761C30.2405 97.8761 30.6418 97.7034 30.9685 97.3581C31.3045 97.0128 31.4725 96.5414 31.4725 95.9441ZM40.3585 91.9541C41.2731 91.9541 42.0011 92.2528 42.5425 92.8501C43.0931 93.4381 43.3685 94.2501 43.3685 95.2861V99.8501H40.9885V95.6081C40.9885 95.0854 40.8531 94.6794 40.5825 94.3901C40.3118 94.1008 39.9478 93.9561 39.4905 93.9561C39.0331 93.9561 38.6691 94.1008 38.3985 94.3901C38.1278 94.6794 37.9925 95.0854 37.9925 95.6081V99.8501H35.5985V92.0381H37.9925V93.0741C38.2351 92.7288 38.5618 92.4581 38.9725 92.2621C39.3831 92.0568 39.8451 91.9541 40.3585 91.9541ZM48.0001 91.9261C48.5507 91.9261 49.0314 92.0381 49.4421 92.2621C49.8621 92.4861 50.1841 92.7801 50.4081 93.1441V92.0381H52.8021V99.8361C52.8021 100.555 52.6574 101.203 52.3681 101.782C52.0881 102.37 51.6541 102.837 51.0661 103.182C50.4874 103.527 49.7641 103.7 48.8961 103.7C47.7387 103.7 46.8007 103.425 46.0821 102.874C45.3634 102.333 44.9527 101.595 44.8501 100.662H47.2161C47.2907 100.961 47.4681 101.194 47.7481 101.362C48.0281 101.539 48.3734 101.628 48.7841 101.628C49.2787 101.628 49.6707 101.483 49.9601 101.194C50.2587 100.914 50.4081 100.461 50.4081 99.8361V98.7301C50.1747 99.0941 49.8527 99.3928 49.4421 99.6261C49.0314 99.8501 48.5507 99.9621 48.0001 99.9621C47.3561 99.9621 46.7727 99.7988 46.2501 99.4721C45.7274 99.1361 45.3121 98.6648 45.0041 98.0581C44.7054 97.4421 44.5561 96.7328 44.5561 95.9301C44.5561 95.1274 44.7054 94.4228 45.0041 93.8161C45.3121 93.2094 45.7274 92.7428 46.2501 92.4161C46.7727 92.0894 47.3561 91.9261 48.0001 91.9261ZM50.4081 95.9441C50.4081 95.3468 50.2401 94.8754 49.9041 94.5301C49.5774 94.1848 49.1761 94.0121 48.7001 94.0121C48.2241 94.0121 47.8181 94.1848 47.4821 94.5301C47.1554 94.8661 46.9921 95.3328 46.9921 95.9301C46.9921 96.5274 47.1554 97.0034 47.4821 97.3581C47.8181 97.7034 48.2241 97.8761 48.7001 97.8761C49.1761 97.8761 49.5774 97.7034 49.9041 97.3581C50.2401 97.0128 50.4081 96.5414 50.4081 95.9441ZM56.928 89.4901V99.8501H54.534V89.4901H56.928ZM62.2189 99.9621C61.4536 99.9621 60.7629 99.7988 60.1469 99.4721C59.5403 99.1454 59.0596 98.6788 58.7049 98.0721C58.3596 97.4654 58.1869 96.7561 58.1869 95.9441C58.1869 95.1414 58.3643 94.4368 58.7189 93.8301C59.0736 93.2141 59.5589 92.7428 60.1749 92.4161C60.7909 92.0894 61.4816 91.9261 62.2469 91.9261C63.0123 91.9261 63.7029 92.0894 64.3189 92.4161C64.9349 92.7428 65.4203 93.2141 65.7749 93.8301C66.1296 94.4368 66.3069 95.1414 66.3069 95.9441C66.3069 96.7468 66.1249 97.4561 65.7609 98.0721C65.4063 98.6788 64.9163 99.1454 64.2909 99.4721C63.6749 99.7988 62.9843 99.9621 62.2189 99.9621ZM62.2189 97.8901C62.6763 97.8901 63.0636 97.7221 63.3809 97.3861C63.7076 97.0501 63.8709 96.5694 63.8709 95.9441C63.8709 95.3188 63.7123 94.8381 63.3949 94.5021C63.0869 94.1661 62.7043 93.9981 62.2469 93.9981C61.7803 93.9981 61.3929 94.1661 61.0849 94.5021C60.7769 94.8288 60.6229 95.3094 60.6229 95.9441C60.6229 96.5694 60.7723 97.0501 61.0709 97.3861C61.3789 97.7221 61.7616 97.8901 62.2189 97.8901ZM69.971 93.3401C70.251 92.9108 70.601 92.5748 71.021 92.3321C71.441 92.0801 71.9077 91.9541 72.421 91.9541V94.4881H71.763C71.1657 94.4881 70.7177 94.6188 70.419 94.8801C70.1203 95.1321 69.971 95.5801 69.971 96.2241V99.8501H67.577V92.0381H69.971V93.3401ZM80.9293 95.8181C80.9293 96.0421 80.9153 96.2754 80.8873 96.5181H75.4693C75.5066 97.0034 75.6606 97.3768 75.9313 97.6381C76.2113 97.8901 76.5519 98.0161 76.9533 98.0161C77.5506 98.0161 77.9659 97.7641 78.1993 97.2601H80.7473C80.6166 97.7734 80.3786 98.2354 80.0333 98.6461C79.6973 99.0568 79.2726 99.3788 78.7593 99.6121C78.2459 99.8454 77.6719 99.9621 77.0373 99.9621C76.2719 99.9621 75.5906 99.7988 74.9933 99.4721C74.3959 99.1454 73.9293 98.6788 73.5933 98.0721C73.2573 97.4654 73.0893 96.7561 73.0893 95.9441C73.0893 95.1321 73.2526 94.4228 73.5793 93.8161C73.9153 93.2094 74.3819 92.7428 74.9793 92.4161C75.5766 92.0894 76.2626 91.9261 77.0373 91.9261C77.7933 91.9261 78.4653 92.0848 79.0533 92.4021C79.6413 92.7194 80.0986 93.1721 80.4253 93.7601C80.7613 94.3481 80.9293 95.0341 80.9293 95.8181ZM78.4793 95.1881C78.4793 94.7774 78.3393 94.4508 78.0593 94.2081C77.7793 93.9654 77.4293 93.8441 77.0093 93.8441C76.6079 93.8441 76.2673 93.9608 75.9873 94.1941C75.7166 94.4274 75.5486 94.7588 75.4833 95.1881H78.4793ZM84.7682 97.6381L83.2142 101.656H81.6882L82.5002 97.6381H84.7682ZM94.8765 99.8501L91.5725 95.5101V99.8501H89.1785V90.0221H91.5725V94.3341L94.8485 90.0221H97.6625L93.8545 94.8381L97.8025 99.8501H94.8765ZM98.4643 95.9301C98.4643 95.1274 98.6136 94.4228 98.9123 93.8161C99.2203 93.2094 99.6356 92.7428 100.158 92.4161C100.681 92.0894 101.264 91.9261 101.908 91.9261C102.459 91.9261 102.94 92.0381 103.35 92.2621C103.77 92.4861 104.092 92.7801 104.316 93.1441V92.0381H106.71V99.8501H104.316V98.7441C104.083 99.1081 103.756 99.4021 103.336 99.6261C102.926 99.8501 102.445 99.9621 101.894 99.9621C101.26 99.9621 100.681 99.7988 100.158 99.4721C99.6356 99.1361 99.2203 98.6648 98.9123 98.0581C98.6136 97.4421 98.4643 96.7328 98.4643 95.9301ZM104.316 95.9441C104.316 95.3468 104.148 94.8754 103.812 94.5301C103.486 94.1848 103.084 94.0121 102.608 94.0121C102.132 94.0121 101.726 94.1848 101.39 94.5301C101.064 94.8661 100.9 95.3328 100.9 95.9301C100.9 96.5274 101.064 97.0034 101.39 97.3581C101.726 97.7034 102.132 97.8761 102.608 97.8761C103.084 97.8761 103.486 97.7034 103.812 97.3581C104.148 97.0128 104.316 96.5414 104.316 95.9441ZM110.836 93.3401C111.116 92.9108 111.466 92.5748 111.886 92.3321C112.306 92.0801 112.773 91.9541 113.286 91.9541V94.4881H112.628C112.031 94.4881 111.583 94.6188 111.284 94.8801C110.986 95.1321 110.836 95.5801 110.836 96.2241V99.8501H108.442V92.0381H110.836V93.3401ZM119.191 91.9541C120.105 91.9541 120.833 92.2528 121.375 92.8501C121.925 93.4381 122.201 94.2501 122.201 95.2861V99.8501H119.821V95.6081C119.821 95.0854 119.685 94.6794 119.415 94.3901C119.144 94.1008 118.78 93.9561 118.323 93.9561C117.865 93.9561 117.501 94.1008 117.231 94.3901C116.96 94.6794 116.825 95.0854 116.825 95.6081V99.8501H114.431V92.0381H116.825V93.0741C117.067 92.7288 117.394 92.4581 117.805 92.2621C118.215 92.0568 118.677 91.9541 119.191 91.9541ZM123.388 95.9301C123.388 95.1274 123.537 94.4228 123.836 93.8161C124.144 93.2094 124.559 92.7428 125.082 92.4161C125.605 92.0894 126.188 91.9261 126.832 91.9261C127.383 91.9261 127.863 92.0381 128.274 92.2621C128.694 92.4861 129.016 92.7801 129.24 93.1441V92.0381H131.634V99.8501H129.24V98.7441C129.007 99.1081 128.68 99.4021 128.26 99.6261C127.849 99.8501 127.369 99.9621 126.818 99.9621C126.183 99.9621 125.605 99.7988 125.082 99.4721C124.559 99.1361 124.144 98.6648 123.836 98.0581C123.537 97.4421 123.388 96.7328 123.388 95.9301ZM129.24 95.9441C129.24 95.3468 129.072 94.8754 128.736 94.5301C128.409 94.1848 128.008 94.0121 127.532 94.0121C127.056 94.0121 126.65 94.1848 126.314 94.5301C125.987 94.8661 125.824 95.3328 125.824 95.9301C125.824 96.5274 125.987 97.0034 126.314 97.3581C126.65 97.7034 127.056 97.8761 127.532 97.8761C128.008 97.8761 128.409 97.7034 128.736 97.3581C129.072 97.0128 129.24 96.5414 129.24 95.9441ZM137.72 97.8201V99.8501H136.502C135.634 99.8501 134.957 99.6401 134.472 99.2201C133.987 98.7908 133.744 98.0954 133.744 97.1341V94.0261H132.792V92.0381H133.744V90.1341H136.138V92.0381H137.706V94.0261H136.138V97.1621C136.138 97.3954 136.194 97.5634 136.306 97.6661C136.418 97.7688 136.605 97.8201 136.866 97.8201H137.72ZM138.578 95.9301C138.578 95.1274 138.727 94.4228 139.026 93.8161C139.334 93.2094 139.749 92.7428 140.272 92.4161C140.794 92.0894 141.378 91.9261 142.022 91.9261C142.572 91.9261 143.053 92.0381 143.464 92.2621C143.884 92.4861 144.206 92.7801 144.43 93.1441V92.0381H146.824V99.8501H144.43V98.7441C144.196 99.1081 143.87 99.4021 143.45 99.6261C143.039 99.8501 142.558 99.9621 142.008 99.9621C141.373 99.9621 140.794 99.7988 140.272 99.4721C139.749 99.1361 139.334 98.6648 139.026 98.0581C138.727 97.4421 138.578 96.7328 138.578 95.9301ZM144.43 95.9441C144.43 95.3468 144.262 94.8754 143.926 94.5301C143.599 94.1848 143.198 94.0121 142.722 94.0121C142.246 94.0121 141.84 94.1848 141.504 94.5301C141.177 94.8661 141.014 95.3328 141.014 95.9301C141.014 96.5274 141.177 97.0034 141.504 97.3581C141.84 97.7034 142.246 97.8761 142.722 97.8761C143.198 97.8761 143.599 97.7034 143.926 97.3581C144.262 97.0128 144.43 96.5414 144.43 95.9441ZM153.33 99.8501L150.95 96.5741V99.8501H148.556V89.4901H150.95V95.2161L153.316 92.0381H156.27L153.022 95.9581L156.298 99.8501H153.33ZM156.734 95.9301C156.734 95.1274 156.883 94.4228 157.182 93.8161C157.49 93.2094 157.905 92.7428 158.428 92.4161C158.95 92.0894 159.534 91.9261 160.178 91.9261C160.728 91.9261 161.209 92.0381 161.62 92.2621C162.04 92.4861 162.362 92.7801 162.586 93.1441V92.0381H164.98V99.8501H162.586V98.7441C162.352 99.1081 162.026 99.4021 161.606 99.6261C161.195 99.8501 160.714 99.9621 160.164 99.9621C159.529 99.9621 158.95 99.7988 158.428 99.4721C157.905 99.1361 157.49 98.6648 157.182 98.0581C156.883 97.4421 156.734 96.7328 156.734 95.9301ZM162.586 95.9441C162.586 95.3468 162.418 94.8754 162.082 94.5301C161.755 94.1848 161.354 94.0121 160.878 94.0121C160.402 94.0121 159.996 94.1848 159.66 94.5301C159.333 94.8661 159.17 95.3328 159.17 95.9301C159.17 96.5274 159.333 97.0034 159.66 97.3581C159.996 97.7034 160.402 97.8761 160.878 97.8761C161.354 97.8761 161.755 97.7034 162.082 97.3581C162.418 97.0128 162.586 96.5414 162.586 95.9441Z" fill="#414146"/>
<path d="M20.172 118.538C19.528 118.538 18.9493 118.426 18.436 118.202C17.932 117.969 17.5353 117.651 17.246 117.25C16.9567 116.839 16.8073 116.368 16.798 115.836H18.156C18.2027 116.293 18.3893 116.681 18.716 116.998C19.052 117.306 19.5373 117.46 20.172 117.46C20.7787 117.46 21.2547 117.311 21.6 117.012C21.9547 116.704 22.132 116.312 22.132 115.836C22.132 115.463 22.0293 115.159 21.824 114.926C21.6187 114.693 21.362 114.515 21.054 114.394C20.746 114.273 20.3307 114.142 19.808 114.002C19.164 113.834 18.646 113.666 18.254 113.498C17.8713 113.33 17.54 113.069 17.26 112.714C16.9893 112.35 16.854 111.865 16.854 111.258C16.854 110.726 16.9893 110.255 17.26 109.844C17.5307 109.433 17.9087 109.116 18.394 108.892C18.8887 108.668 19.4533 108.556 20.088 108.556C21.0027 108.556 21.7493 108.785 22.328 109.242C22.916 109.699 23.2473 110.306 23.322 111.062H21.922C21.8753 110.689 21.6793 110.362 21.334 110.082C20.9887 109.793 20.5313 109.648 19.962 109.648C19.43 109.648 18.996 109.788 18.66 110.068C18.324 110.339 18.156 110.721 18.156 111.216C18.156 111.571 18.254 111.86 18.45 112.084C18.6553 112.308 18.9027 112.481 19.192 112.602C19.4907 112.714 19.906 112.845 20.438 112.994C21.082 113.171 21.6 113.349 21.992 113.526C22.384 113.694 22.72 113.96 23 114.324C23.28 114.679 23.42 115.164 23.42 115.78C23.42 116.256 23.294 116.704 23.042 117.124C22.79 117.544 22.4167 117.885 21.922 118.146C21.4273 118.407 20.844 118.538 20.172 118.538ZM34.5208 110.628C35.1181 110.628 35.6501 110.754 36.1168 111.006C36.5835 111.249 36.9521 111.617 37.2228 112.112C37.4935 112.607 37.6288 113.209 37.6288 113.918V118.44H36.3688V114.1C36.3688 113.335 36.1775 112.751 35.7948 112.35C35.4215 111.939 34.9128 111.734 34.2688 111.734C33.6061 111.734 33.0788 111.949 32.6868 112.378C32.2948 112.798 32.0988 113.409 32.0988 114.212V118.44H30.8388V114.1C30.8388 113.335 30.6475 112.751 30.2648 112.35C29.8915 111.939 29.3828 111.734 28.7388 111.734C28.0761 111.734 27.5488 111.949 27.1568 112.378C26.7648 112.798 26.5688 113.409 26.5688 114.212V118.44H25.2948V110.768H26.5688V111.874C26.8208 111.473 27.1568 111.165 27.5768 110.95C28.0061 110.735 28.4775 110.628 28.9908 110.628C29.6348 110.628 30.2041 110.773 30.6988 111.062C31.1935 111.351 31.5621 111.776 31.8048 112.336C32.0195 111.795 32.3741 111.375 32.8688 111.076C33.3635 110.777 33.9141 110.628 34.5208 110.628ZM40.3766 109.522C40.134 109.522 39.9286 109.438 39.7606 109.27C39.5926 109.102 39.5086 108.897 39.5086 108.654C39.5086 108.411 39.5926 108.206 39.7606 108.038C39.9286 107.87 40.134 107.786 40.3766 107.786C40.61 107.786 40.806 107.87 40.9646 108.038C41.1326 108.206 41.2166 108.411 41.2166 108.654C41.2166 108.897 41.1326 109.102 40.9646 109.27C40.806 109.438 40.61 109.522 40.3766 109.522ZM40.9926 110.768V118.44H39.7186V110.768H40.9926ZM44.4379 108.08V118.44H43.1639V108.08H44.4379ZM53.6093 114.31C53.6093 114.553 53.5953 114.809 53.5673 115.08H47.4353C47.4819 115.836 47.7386 116.429 48.2053 116.858C48.6813 117.278 49.2553 117.488 49.9273 117.488C50.4779 117.488 50.9353 117.362 51.2993 117.11C51.6726 116.849 51.9339 116.503 52.0833 116.074H53.4553C53.2499 116.811 52.8393 117.413 52.2233 117.88C51.6073 118.337 50.8419 118.566 49.9273 118.566C49.1993 118.566 48.5459 118.403 47.9673 118.076C47.3979 117.749 46.9499 117.287 46.6233 116.69C46.2966 116.083 46.1333 115.383 46.1333 114.59C46.1333 113.797 46.2919 113.101 46.6093 112.504C46.9266 111.907 47.3699 111.449 47.9393 111.132C48.5179 110.805 49.1806 110.642 49.9273 110.642C50.6553 110.642 51.2993 110.801 51.8593 111.118C52.4193 111.435 52.8486 111.874 53.1473 112.434C53.4553 112.985 53.6093 113.61 53.6093 114.31ZM52.2933 114.044C52.2933 113.559 52.1859 113.143 51.9713 112.798C51.7566 112.443 51.4626 112.177 51.0893 112C50.7253 111.813 50.3193 111.72 49.8713 111.72C49.2273 111.72 48.6766 111.925 48.2193 112.336C47.7713 112.747 47.5146 113.316 47.4493 114.044H52.2933ZM58.0069 118.566C57.4189 118.566 56.8916 118.468 56.4249 118.272C55.9582 118.067 55.5896 117.787 55.3189 117.432C55.0482 117.068 54.8989 116.653 54.8709 116.186H56.1869C56.2242 116.569 56.4016 116.881 56.7189 117.124C57.0456 117.367 57.4702 117.488 57.9929 117.488C58.4782 117.488 58.8609 117.381 59.1409 117.166C59.4209 116.951 59.5609 116.681 59.5609 116.354C59.5609 116.018 59.4116 115.771 59.1129 115.612C58.8142 115.444 58.3522 115.281 57.7269 115.122C57.1576 114.973 56.6909 114.823 56.3269 114.674C55.9722 114.515 55.6642 114.287 55.4029 113.988C55.1509 113.68 55.0249 113.279 55.0249 112.784C55.0249 112.392 55.1416 112.033 55.3749 111.706C55.6082 111.379 55.9396 111.123 56.3689 110.936C56.7982 110.74 57.2882 110.642 57.8389 110.642C58.6882 110.642 59.3742 110.857 59.8969 111.286C60.4196 111.715 60.6996 112.303 60.7369 113.05H59.4629C59.4349 112.649 59.2716 112.327 58.9729 112.084C58.6836 111.841 58.2916 111.72 57.7969 111.72C57.3396 111.72 56.9756 111.818 56.7049 112.014C56.4342 112.21 56.2989 112.467 56.2989 112.784C56.2989 113.036 56.3782 113.246 56.5369 113.414C56.7049 113.573 56.9102 113.703 57.1529 113.806C57.4049 113.899 57.7502 114.007 58.1889 114.128C58.7396 114.277 59.1876 114.427 59.5329 114.576C59.8782 114.716 60.1722 114.931 60.4149 115.22C60.6669 115.509 60.7976 115.887 60.8069 116.354C60.8069 116.774 60.6902 117.152 60.4569 117.488C60.2236 117.824 59.8922 118.09 59.4629 118.286C59.0429 118.473 58.5576 118.566 58.0069 118.566ZM65.3213 118.566C64.7333 118.566 64.206 118.468 63.7393 118.272C63.2727 118.067 62.904 117.787 62.6333 117.432C62.3627 117.068 62.2133 116.653 62.1853 116.186H63.5013C63.5387 116.569 63.716 116.881 64.0333 117.124C64.36 117.367 64.7847 117.488 65.3073 117.488C65.7927 117.488 66.1753 117.381 66.4553 117.166C66.7353 116.951 66.8753 116.681 66.8753 116.354C66.8753 116.018 66.726 115.771 66.4273 115.612C66.1287 115.444 65.6667 115.281 65.0413 115.122C64.472 114.973 64.0053 114.823 63.6413 114.674C63.2867 114.515 62.9787 114.287 62.7173 113.988C62.4653 113.68 62.3393 113.279 62.3393 112.784C62.3393 112.392 62.456 112.033 62.6893 111.706C62.9227 111.379 63.254 111.123 63.6833 110.936C64.1127 110.74 64.6027 110.642 65.1533 110.642C66.0027 110.642 66.6887 110.857 67.2113 111.286C67.734 111.715 68.014 112.303 68.0513 113.05H66.7773C66.7493 112.649 66.586 112.327 66.2873 112.084C65.998 111.841 65.606 111.72 65.1113 111.72C64.654 111.72 64.29 111.818 64.0193 112.014C63.7487 112.21 63.6133 112.467 63.6133 112.784C63.6133 113.036 63.6927 113.246 63.8513 113.414C64.0193 113.573 64.2247 113.703 64.4673 113.806C64.7193 113.899 65.0647 114.007 65.5033 114.128C66.054 114.277 66.502 114.427 66.8473 114.576C67.1927 114.716 67.4867 114.931 67.7293 115.22C67.9813 115.509 68.112 115.887 68.1213 116.354C68.1213 116.774 68.0047 117.152 67.7713 117.488C67.538 117.824 67.2067 118.09 66.7773 118.286C66.3573 118.473 65.872 118.566 65.3213 118.566ZM76.9198 114.31C76.9198 114.553 76.9058 114.809 76.8778 115.08H70.7458C70.7925 115.836 71.0491 116.429 71.5158 116.858C71.9918 117.278 72.5658 117.488 73.2378 117.488C73.7885 117.488 74.2458 117.362 74.6098 117.11C74.9831 116.849 75.2445 116.503 75.3938 116.074H76.7658C76.5605 116.811 76.1498 117.413 75.5338 117.88C74.9178 118.337 74.1525 118.566 73.2378 118.566C72.5098 118.566 71.8565 118.403 71.2778 118.076C70.7085 117.749 70.2605 117.287 69.9338 116.69C69.6071 116.083 69.4438 115.383 69.4438 114.59C69.4438 113.797 69.6025 113.101 69.9198 112.504C70.2371 111.907 70.6805 111.449 71.2498 111.132C71.8285 110.805 72.4911 110.642 73.2378 110.642C73.9658 110.642 74.6098 110.801 75.1698 111.118C75.7298 111.435 76.1591 111.874 76.4578 112.434C76.7658 112.985 76.9198 113.61 76.9198 114.31ZM75.6038 114.044C75.6038 113.559 75.4965 113.143 75.2818 112.798C75.0671 112.443 74.7731 112.177 74.3998 112C74.0358 111.813 73.6298 111.72 73.1818 111.72C72.5378 111.72 71.9871 111.925 71.5298 112.336C71.0818 112.747 70.8251 113.316 70.7598 114.044H75.6038ZM82.3394 110.628C83.2728 110.628 84.0288 110.913 84.6074 111.482C85.1861 112.042 85.4754 112.854 85.4754 113.918V118.44H84.2154V114.1C84.2154 113.335 84.0241 112.751 83.6414 112.35C83.2588 111.939 82.7361 111.734 82.0734 111.734C81.4014 111.734 80.8648 111.944 80.4634 112.364C80.0714 112.784 79.8754 113.395 79.8754 114.198V118.44H78.6014V110.768H79.8754V111.86C80.1274 111.468 80.4681 111.165 80.8974 110.95C81.3361 110.735 81.8168 110.628 82.3394 110.628ZM87.0805 114.59C87.0805 113.797 87.2392 113.106 87.5565 112.518C87.8738 111.921 88.3125 111.459 88.8725 111.132C89.4418 110.805 90.0905 110.642 90.8185 110.642C91.7612 110.642 92.5358 110.871 93.1425 111.328C93.7585 111.785 94.1645 112.42 94.3605 113.232H92.9885C92.8578 112.765 92.6012 112.397 92.2185 112.126C91.8452 111.855 91.3785 111.72 90.8185 111.72C90.0905 111.72 89.5025 111.972 89.0545 112.476C88.6065 112.971 88.3825 113.675 88.3825 114.59C88.3825 115.514 88.6065 116.228 89.0545 116.732C89.5025 117.236 90.0905 117.488 90.8185 117.488C91.3785 117.488 91.8452 117.357 92.2185 117.096C92.5918 116.835 92.8485 116.461 92.9885 115.976H94.3605C94.1552 116.76 93.7445 117.39 93.1285 117.866C92.5125 118.333 91.7425 118.566 90.8185 118.566C90.0905 118.566 89.4418 118.403 88.8725 118.076C88.3125 117.749 87.8738 117.287 87.5565 116.69C87.2392 116.093 87.0805 115.393 87.0805 114.59ZM103.06 114.31C103.06 114.553 103.046 114.809 103.018 115.08H96.8864C96.9331 115.836 97.1898 116.429 97.6564 116.858C98.1324 117.278 98.7064 117.488 99.3784 117.488C99.9291 117.488 100.386 117.362 100.75 117.11C101.124 116.849 101.385 116.503 101.534 116.074H102.906C102.701 116.811 102.29 117.413 101.674 117.88C101.058 118.337 100.293 118.566 99.3784 118.566C98.6504 118.566 97.9971 118.403 97.4184 118.076C96.8491 117.749 96.4011 117.287 96.0744 116.69C95.7478 116.083 95.5844 115.383 95.5844 114.59C95.5844 113.797 95.7431 113.101 96.0604 112.504C96.3778 111.907 96.8211 111.449 97.3904 111.132C97.9691 110.805 98.6318 110.642 99.3784 110.642C100.106 110.642 100.75 110.801 101.31 111.118C101.87 111.435 102.3 111.874 102.598 112.434C102.906 112.985 103.06 113.61 103.06 114.31ZM101.744 114.044C101.744 113.559 101.637 113.143 101.422 112.798C101.208 112.443 100.914 112.177 100.54 112C100.176 111.813 99.7704 111.72 99.3224 111.72C98.6784 111.72 98.1278 111.925 97.6704 112.336C97.2224 112.747 96.9658 113.316 96.9004 114.044H101.744ZM107.998 113.554C107.998 112.602 108.213 111.748 108.642 110.992C109.072 110.227 109.655 109.629 110.392 109.2C111.139 108.771 111.965 108.556 112.87 108.556C113.934 108.556 114.863 108.813 115.656 109.326C116.45 109.839 117.028 110.567 117.392 111.51H115.866C115.596 110.922 115.204 110.469 114.69 110.152C114.186 109.835 113.58 109.676 112.87 109.676C112.189 109.676 111.578 109.835 111.036 110.152C110.495 110.469 110.07 110.922 109.762 111.51C109.454 112.089 109.3 112.77 109.3 113.554C109.3 114.329 109.454 115.01 109.762 115.598C110.07 116.177 110.495 116.625 111.036 116.942C111.578 117.259 112.189 117.418 112.87 117.418C113.58 117.418 114.186 117.264 114.69 116.956C115.204 116.639 115.596 116.186 115.866 115.598H117.392C117.028 116.531 116.45 117.255 115.656 117.768C114.863 118.272 113.934 118.524 112.87 118.524C111.965 118.524 111.139 118.314 110.392 117.894C109.655 117.465 109.072 116.872 108.642 116.116C108.213 115.36 107.998 114.506 107.998 113.554ZM126.289 114.31C126.289 114.553 126.275 114.809 126.247 115.08H120.115C120.162 115.836 120.418 116.429 120.885 116.858C121.361 117.278 121.935 117.488 122.607 117.488C123.158 117.488 123.615 117.362 123.979 117.11C124.352 116.849 124.614 116.503 124.763 116.074H126.135C125.93 116.811 125.519 117.413 124.903 117.88C124.287 118.337 123.522 118.566 122.607 118.566C121.879 118.566 121.226 118.403 120.647 118.076C120.078 117.749 119.63 117.287 119.303 116.69C118.976 116.083 118.813 115.383 118.813 114.59C118.813 113.797 118.972 113.101 119.289 112.504C119.606 111.907 120.05 111.449 120.619 111.132C121.198 110.805 121.86 110.642 122.607 110.642C123.335 110.642 123.979 110.801 124.539 111.118C125.099 111.435 125.528 111.874 125.827 112.434C126.135 112.985 126.289 113.61 126.289 114.31ZM124.973 114.044C124.973 113.559 124.866 113.143 124.651 112.798C124.436 112.443 124.142 112.177 123.769 112C123.405 111.813 122.999 111.72 122.551 111.72C121.907 111.72 121.356 111.925 120.899 112.336C120.451 112.747 120.194 113.316 120.129 114.044H124.973ZM131.709 110.628C132.642 110.628 133.398 110.913 133.977 111.482C134.555 112.042 134.845 112.854 134.845 113.918V118.44H133.585V114.1C133.585 113.335 133.393 112.751 133.011 112.35C132.628 111.939 132.105 111.734 131.443 111.734C130.771 111.734 130.234 111.944 129.833 112.364C129.441 112.784 129.245 113.395 129.245 114.198V118.44H127.971V110.768H129.245V111.86C129.497 111.468 129.837 111.165 130.267 110.95C130.705 110.735 131.186 110.628 131.709 110.628ZM138.48 111.818V116.34C138.48 116.713 138.559 116.979 138.718 117.138C138.876 117.287 139.152 117.362 139.544 117.362H140.482V118.44H139.334C138.624 118.44 138.092 118.277 137.738 117.95C137.383 117.623 137.206 117.087 137.206 116.34V111.818H136.212V110.768H137.206V108.836H138.48V110.768H140.482V111.818H138.48ZM149.025 114.31C149.025 114.553 149.011 114.809 148.983 115.08H142.851C142.898 115.836 143.155 116.429 143.621 116.858C144.097 117.278 144.671 117.488 145.343 117.488C145.894 117.488 146.351 117.362 146.715 117.11C147.089 116.849 147.35 116.503 147.499 116.074H148.871C148.666 116.811 148.255 117.413 147.639 117.88C147.023 118.337 146.258 118.566 145.343 118.566C144.615 118.566 143.962 118.403 143.383 118.076C142.814 117.749 142.366 117.287 142.039 116.69C141.713 116.083 141.549 115.383 141.549 114.59C141.549 113.797 141.708 113.101 142.025 112.504C142.343 111.907 142.786 111.449 143.355 111.132C143.934 110.805 144.597 110.642 145.343 110.642C146.071 110.642 146.715 110.801 147.275 111.118C147.835 111.435 148.265 111.874 148.563 112.434C148.871 112.985 149.025 113.61 149.025 114.31ZM147.709 114.044C147.709 113.559 147.602 113.143 147.387 112.798C147.173 112.443 146.879 112.177 146.505 112C146.141 111.813 145.735 111.72 145.287 111.72C144.643 111.72 144.093 111.925 143.635 112.336C143.187 112.747 142.931 113.316 142.865 114.044H147.709ZM151.981 112.014C152.205 111.575 152.522 111.235 152.933 110.992C153.353 110.749 153.862 110.628 154.459 110.628V111.944H154.123C152.695 111.944 151.981 112.719 151.981 114.268V118.44H150.707V110.768H151.981V112.014ZM162.784 111.818H161.174V118.44H159.9V111.818H158.906V110.768H159.9V110.222C159.9 109.363 160.119 108.738 160.558 108.346C161.006 107.945 161.72 107.744 162.7 107.744V108.808C162.14 108.808 161.743 108.92 161.51 109.144C161.286 109.359 161.174 109.718 161.174 110.222V110.768H162.784V111.818ZM167.615 118.566C166.897 118.566 166.243 118.403 165.655 118.076C165.077 117.749 164.619 117.287 164.283 116.69C163.957 116.083 163.793 115.383 163.793 114.59C163.793 113.806 163.961 113.115 164.297 112.518C164.643 111.911 165.109 111.449 165.697 111.132C166.285 110.805 166.943 110.642 167.671 110.642C168.399 110.642 169.057 110.805 169.645 111.132C170.233 111.449 170.695 111.907 171.031 112.504C171.377 113.101 171.549 113.797 171.549 114.59C171.549 115.383 171.372 116.083 171.017 116.69C170.672 117.287 170.201 117.749 169.603 118.076C169.006 118.403 168.343 118.566 167.615 118.566ZM167.615 117.446C168.073 117.446 168.502 117.339 168.903 117.124C169.305 116.909 169.627 116.587 169.869 116.158C170.121 115.729 170.247 115.206 170.247 114.59C170.247 113.974 170.126 113.451 169.883 113.022C169.641 112.593 169.323 112.275 168.931 112.07C168.539 111.855 168.115 111.748 167.657 111.748C167.191 111.748 166.761 111.855 166.369 112.07C165.987 112.275 165.679 112.593 165.445 113.022C165.212 113.451 165.095 113.974 165.095 114.59C165.095 115.215 165.207 115.743 165.431 116.172C165.665 116.601 165.973 116.923 166.355 117.138C166.738 117.343 167.158 117.446 167.615 117.446ZM174.498 112.014C174.722 111.575 175.04 111.235 175.45 110.992C175.87 110.749 176.379 110.628 176.976 110.628V111.944H176.64C175.212 111.944 174.498 112.719 174.498 114.268V118.44H173.224V110.768H174.498V112.014ZM187.948 116.27H183.692L182.908 118.44H181.564L185.092 108.738H186.562L190.076 118.44H188.732L187.948 116.27ZM187.584 115.234L185.82 110.306L184.056 115.234H187.584ZM191.137 114.576C191.137 113.792 191.296 113.106 191.613 112.518C191.93 111.921 192.364 111.459 192.915 111.132C193.475 110.805 194.1 110.642 194.791 110.642C195.388 110.642 195.944 110.782 196.457 111.062C196.97 111.333 197.362 111.692 197.633 112.14V108.08H198.921V118.44H197.633V116.998C197.381 117.455 197.008 117.833 196.513 118.132C196.018 118.421 195.44 118.566 194.777 118.566C194.096 118.566 193.475 118.398 192.915 118.062C192.364 117.726 191.93 117.255 191.613 116.648C191.296 116.041 191.137 115.351 191.137 114.576ZM197.633 114.59C197.633 114.011 197.516 113.507 197.283 113.078C197.05 112.649 196.732 112.322 196.331 112.098C195.939 111.865 195.505 111.748 195.029 111.748C194.553 111.748 194.119 111.86 193.727 112.084C193.335 112.308 193.022 112.635 192.789 113.064C192.556 113.493 192.439 113.997 192.439 114.576C192.439 115.164 192.556 115.677 192.789 116.116C193.022 116.545 193.335 116.877 193.727 117.11C194.119 117.334 194.553 117.446 195.029 117.446C195.505 117.446 195.939 117.334 196.331 117.11C196.732 116.877 197.05 116.545 197.283 116.116C197.516 115.677 197.633 115.169 197.633 114.59ZM203.93 117.264L206.31 110.768H207.668L204.658 118.44H203.174L200.164 110.768H201.536L203.93 117.264ZM208.446 114.576C208.446 113.792 208.604 113.106 208.922 112.518C209.239 111.921 209.673 111.459 210.224 111.132C210.784 110.805 211.404 110.642 212.086 110.642C212.758 110.642 213.341 110.787 213.836 111.076C214.33 111.365 214.699 111.729 214.942 112.168V110.768H216.23V118.44H214.942V117.012C214.69 117.46 214.312 117.833 213.808 118.132C213.313 118.421 212.734 118.566 212.072 118.566C211.39 118.566 210.774 118.398 210.224 118.062C209.673 117.726 209.239 117.255 208.922 116.648C208.604 116.041 208.446 115.351 208.446 114.576ZM214.942 114.59C214.942 114.011 214.825 113.507 214.592 113.078C214.358 112.649 214.041 112.322 213.64 112.098C213.248 111.865 212.814 111.748 212.338 111.748C211.862 111.748 211.428 111.86 211.036 112.084C210.644 112.308 210.331 112.635 210.098 113.064C209.864 113.493 209.748 113.997 209.748 114.576C209.748 115.164 209.864 115.677 210.098 116.116C210.331 116.545 210.644 116.877 211.036 117.11C211.428 117.334 211.862 117.446 212.338 117.446C212.814 117.446 213.248 117.334 213.64 117.11C214.041 116.877 214.358 116.545 214.592 116.116C214.825 115.677 214.942 115.169 214.942 114.59ZM222.121 110.628C223.054 110.628 223.81 110.913 224.389 111.482C224.967 112.042 225.257 112.854 225.257 113.918V118.44H223.997V114.1C223.997 113.335 223.805 112.751 223.423 112.35C223.04 111.939 222.517 111.734 221.855 111.734C221.183 111.734 220.646 111.944 220.245 112.364C219.853 112.784 219.657 113.395 219.657 114.198V118.44H218.383V110.768H219.657V111.86C219.909 111.468 220.249 111.165 220.679 110.95C221.117 110.735 221.598 110.628 222.121 110.628ZM226.862 114.59C226.862 113.797 227.02 113.106 227.338 112.518C227.655 111.921 228.094 111.459 228.654 111.132C229.223 110.805 229.872 110.642 230.6 110.642C231.542 110.642 232.317 110.871 232.924 111.328C233.54 111.785 233.946 112.42 234.142 113.232H232.77C232.639 112.765 232.382 112.397 232 112.126C231.626 111.855 231.16 111.72 230.6 111.72C229.872 111.72 229.284 111.972 228.836 112.476C228.388 112.971 228.164 113.675 228.164 114.59C228.164 115.514 228.388 116.228 228.836 116.732C229.284 117.236 229.872 117.488 230.6 117.488C231.16 117.488 231.626 117.357 232 117.096C232.373 116.835 232.63 116.461 232.77 115.976H234.142C233.936 116.76 233.526 117.39 232.91 117.866C232.294 118.333 231.524 118.566 230.6 118.566C229.872 118.566 229.223 118.403 228.654 118.076C228.094 117.749 227.655 117.287 227.338 116.69C227.02 116.093 226.862 115.393 226.862 114.59ZM242.842 114.31C242.842 114.553 242.828 114.809 242.8 115.08H236.668C236.714 115.836 236.971 116.429 237.438 116.858C237.914 117.278 238.488 117.488 239.16 117.488C239.71 117.488 240.168 117.362 240.532 117.11C240.905 116.849 241.166 116.503 241.316 116.074H242.688C242.482 116.811 242.072 117.413 241.456 117.88C240.84 118.337 240.074 118.566 239.16 118.566C238.432 118.566 237.778 118.403 237.2 118.076C236.63 117.749 236.182 117.287 235.856 116.69C235.529 116.083 235.366 115.383 235.366 114.59C235.366 113.797 235.524 113.101 235.842 112.504C236.159 111.907 236.602 111.449 237.172 111.132C237.75 110.805 238.413 110.642 239.16 110.642C239.888 110.642 240.532 110.801 241.092 111.118C241.652 111.435 242.081 111.874 242.38 112.434C242.688 112.985 242.842 113.61 242.842 114.31ZM241.526 114.044C241.526 113.559 241.418 113.143 241.204 112.798C240.989 112.443 240.695 112.177 240.322 112C239.958 111.813 239.552 111.72 239.104 111.72C238.46 111.72 237.909 111.925 237.452 112.336C237.004 112.747 236.747 113.316 236.682 114.044H241.526ZM244.047 114.576C244.047 113.792 244.206 113.106 244.523 112.518C244.841 111.921 245.275 111.459 245.825 111.132C246.385 110.805 247.011 110.642 247.701 110.642C248.299 110.642 248.854 110.782 249.367 111.062C249.881 111.333 250.273 111.692 250.543 112.14V108.08H251.831V118.44H250.543V116.998C250.291 117.455 249.918 117.833 249.423 118.132C248.929 118.421 248.35 118.566 247.687 118.566C247.006 118.566 246.385 118.398 245.825 118.062C245.275 117.726 244.841 117.255 244.523 116.648C244.206 116.041 244.047 115.351 244.047 114.576ZM250.543 114.59C250.543 114.011 250.427 113.507 250.193 113.078C249.96 112.649 249.643 112.322 249.241 112.098C248.849 111.865 248.415 111.748 247.939 111.748C247.463 111.748 247.029 111.86 246.637 112.084C246.245 112.308 245.933 112.635 245.699 113.064C245.466 113.493 245.349 113.997 245.349 114.576C245.349 115.164 245.466 115.677 245.699 116.116C245.933 116.545 246.245 116.877 246.637 117.11C247.029 117.334 247.463 117.446 247.939 117.446C248.415 117.446 248.849 117.334 249.241 117.11C249.643 116.877 249.96 116.545 250.193 116.116C250.427 115.677 250.543 115.169 250.543 114.59ZM260.755 108.682C261.819 108.682 262.738 108.883 263.513 109.284C264.297 109.676 264.894 110.241 265.305 110.978C265.725 111.715 265.935 112.583 265.935 113.582C265.935 114.581 265.725 115.449 265.305 116.186C264.894 116.914 264.297 117.474 263.513 117.866C262.738 118.249 261.819 118.44 260.755 118.44H257.717V108.682H260.755ZM260.755 117.39C262.015 117.39 262.976 117.059 263.639 116.396C264.301 115.724 264.633 114.786 264.633 113.582C264.633 112.369 264.297 111.421 263.625 110.74C262.962 110.059 262.005 109.718 260.755 109.718H258.991V117.39H260.755ZM274.615 114.31C274.615 114.553 274.601 114.809 274.573 115.08H268.441C268.488 115.836 268.744 116.429 269.211 116.858C269.687 117.278 270.261 117.488 270.933 117.488C271.484 117.488 271.941 117.362 272.305 117.11C272.678 116.849 272.94 116.503 273.089 116.074H274.461C274.256 116.811 273.845 117.413 273.229 117.88C272.613 118.337 271.848 118.566 270.933 118.566C270.205 118.566 269.552 118.403 268.973 118.076C268.404 117.749 267.956 117.287 267.629 116.69C267.302 116.083 267.139 115.383 267.139 114.59C267.139 113.797 267.298 113.101 267.615 112.504C267.932 111.907 268.376 111.449 268.945 111.132C269.524 110.805 270.186 110.642 270.933 110.642C271.661 110.642 272.305 110.801 272.865 111.118C273.425 111.435 273.854 111.874 274.153 112.434C274.461 112.985 274.615 113.61 274.615 114.31ZM273.299 114.044C273.299 113.559 273.192 113.143 272.977 112.798C272.762 112.443 272.468 112.177 272.095 112C271.731 111.813 271.325 111.72 270.877 111.72C270.233 111.72 269.682 111.925 269.225 112.336C268.777 112.747 268.52 113.316 268.455 114.044H273.299ZM280.035 110.628C280.968 110.628 281.724 110.913 282.303 111.482C282.881 112.042 283.171 112.854 283.171 113.918V118.44H281.911V114.1C281.911 113.335 281.719 112.751 281.337 112.35C280.954 111.939 280.431 111.734 279.769 111.734C279.097 111.734 278.56 111.944 278.159 112.364C277.767 112.784 277.571 113.395 277.571 114.198V118.44H276.297V110.768H277.571V111.86C277.823 111.468 278.163 111.165 278.593 110.95C279.031 110.735 279.512 110.628 280.035 110.628ZM286.806 111.818V116.34C286.806 116.713 286.885 116.979 287.044 117.138C287.202 117.287 287.478 117.362 287.87 117.362H288.808V118.44H287.66C286.95 118.44 286.418 118.277 286.064 117.95C285.709 117.623 285.532 117.087 285.532 116.34V111.818H284.538V110.768H285.532V108.836H286.806V110.768H288.808V111.818H286.806ZM291.009 109.522C290.767 109.522 290.561 109.438 290.393 109.27C290.225 109.102 290.141 108.897 290.141 108.654C290.141 108.411 290.225 108.206 290.393 108.038C290.561 107.87 290.767 107.786 291.009 107.786C291.243 107.786 291.439 107.87 291.597 108.038C291.765 108.206 291.849 108.411 291.849 108.654C291.849 108.897 291.765 109.102 291.597 109.27C291.439 109.438 291.243 109.522 291.009 109.522ZM291.625 110.768V118.44H290.351V110.768H291.625ZM296.513 118.566C295.925 118.566 295.397 118.468 294.931 118.272C294.464 118.067 294.095 117.787 293.825 117.432C293.554 117.068 293.405 116.653 293.377 116.186H294.693C294.73 116.569 294.907 116.881 295.225 117.124C295.551 117.367 295.976 117.488 296.499 117.488C296.984 117.488 297.367 117.381 297.647 117.166C297.927 116.951 298.067 116.681 298.067 116.354C298.067 116.018 297.917 115.771 297.619 115.612C297.32 115.444 296.858 115.281 296.233 115.122C295.663 114.973 295.197 114.823 294.833 114.674C294.478 114.515 294.17 114.287 293.909 113.988C293.657 113.68 293.531 113.279 293.531 112.784C293.531 112.392 293.647 112.033 293.881 111.706C294.114 111.379 294.445 111.123 294.875 110.936C295.304 110.74 295.794 110.642 296.345 110.642C297.194 110.642 297.88 110.857 298.403 111.286C298.925 111.715 299.205 112.303 299.243 113.05H297.969C297.941 112.649 297.777 112.327 297.479 112.084C297.189 111.841 296.797 111.72 296.303 111.72C295.845 111.72 295.481 111.818 295.211 112.014C294.94 112.21 294.805 112.467 294.805 112.784C294.805 113.036 294.884 113.246 295.043 113.414C295.211 113.573 295.416 113.703 295.659 113.806C295.911 113.899 296.256 114.007 296.695 114.128C297.245 114.277 297.693 114.427 298.039 114.576C298.384 114.716 298.678 114.931 298.921 115.22C299.173 115.509 299.303 115.887 299.313 116.354C299.313 116.774 299.196 117.152 298.963 117.488C298.729 117.824 298.398 118.09 297.969 118.286C297.549 118.473 297.063 118.566 296.513 118.566ZM302.665 111.818V116.34C302.665 116.713 302.745 116.979 302.903 117.138C303.062 117.287 303.337 117.362 303.729 117.362H304.667V118.44H303.519C302.81 118.44 302.278 118.277 301.923 117.95C301.569 117.623 301.391 117.087 301.391 116.34V111.818H300.397V110.768H301.391V108.836H302.665V110.768H304.667V111.818H302.665ZM307.485 112.014C307.709 111.575 308.026 111.235 308.437 110.992C308.857 110.749 309.365 110.628 309.963 110.628V111.944H309.627C308.199 111.944 307.485 112.719 307.485 114.268V118.44H306.211V110.768H307.485V112.014ZM318.041 110.768L313.421 122.052H312.105L313.617 118.356L310.523 110.768H311.937L314.345 116.984L316.725 110.768H318.041ZM330.335 113.862H327.353V116.886H326.163V113.862H323.195V112.784H326.163V109.746H327.353V112.784H330.335V113.862ZM335.798 109.48V108.318H338.43V118.44H337.142V109.48H335.798Z" fill="#414146"/>
<path d="M26.304 130.218C26.9013 130.218 27.4333 130.344 27.9 130.596C28.3667 130.838 28.7353 131.207 29.006 131.702C29.2767 132.196 29.412 132.798 29.412 133.508V138.03H28.152V133.69C28.152 132.924 27.9607 132.341 27.578 131.94C27.2047 131.529 26.696 131.324 26.052 131.324C25.3893 131.324 24.862 131.538 24.47 131.968C24.078 132.388 23.882 132.999 23.882 133.802V138.03H22.622V133.69C22.622 132.924 22.4307 132.341 22.048 131.94C21.6747 131.529 21.166 131.324 20.522 131.324C19.8593 131.324 19.332 131.538 18.94 131.968C18.548 132.388 18.352 132.999 18.352 133.802V138.03H17.078V130.358H18.352V131.464C18.604 131.062 18.94 130.754 19.36 130.54C19.7893 130.325 20.2607 130.218 20.774 130.218C21.418 130.218 21.9873 130.362 22.482 130.652C22.9767 130.941 23.3453 131.366 23.588 131.926C23.8027 131.384 24.1573 130.964 24.652 130.666C25.1467 130.367 25.6973 130.218 26.304 130.218ZM34.8478 138.156C34.1292 138.156 33.4758 137.992 32.8878 137.666C32.3092 137.339 31.8518 136.877 31.5158 136.28C31.1892 135.673 31.0258 134.973 31.0258 134.18C31.0258 133.396 31.1938 132.705 31.5298 132.108C31.8752 131.501 32.3418 131.039 32.9298 130.722C33.5178 130.395 34.1758 130.232 34.9038 130.232C35.6318 130.232 36.2898 130.395 36.8778 130.722C37.4658 131.039 37.9278 131.496 38.2638 132.094C38.6092 132.691 38.7818 133.386 38.7818 134.18C38.7818 134.973 38.6045 135.673 38.2498 136.28C37.9045 136.877 37.4332 137.339 36.8358 137.666C36.2385 137.992 35.5758 138.156 34.8478 138.156ZM34.8478 137.036C35.3052 137.036 35.7345 136.928 36.1358 136.714C36.5372 136.499 36.8592 136.177 37.1018 135.748C37.3538 135.318 37.4798 134.796 37.4798 134.18C37.4798 133.564 37.3585 133.041 37.1158 132.612C36.8732 132.182 36.5558 131.865 36.1638 131.66C35.7718 131.445 35.3472 131.338 34.8898 131.338C34.4232 131.338 33.9938 131.445 33.6018 131.66C33.2192 131.865 32.9112 132.182 32.6778 132.612C32.4445 133.041 32.3278 133.564 32.3278 134.18C32.3278 134.805 32.4398 135.332 32.6638 135.762C32.8972 136.191 33.2052 136.513 33.5878 136.728C33.9705 136.933 34.3905 137.036 34.8478 137.036ZM41.7309 131.604C41.9549 131.165 42.2722 130.824 42.6829 130.582C43.1029 130.339 43.6116 130.218 44.2089 130.218V131.534H43.8729C42.4449 131.534 41.7309 132.308 41.7309 133.858V138.03H40.4569V130.358H41.7309V131.604ZM52.6796 133.9C52.6796 134.142 52.6656 134.399 52.6376 134.67H46.5056C46.5522 135.426 46.8089 136.018 47.2756 136.448C47.7516 136.868 48.3256 137.078 48.9976 137.078C49.5482 137.078 50.0056 136.952 50.3696 136.7C50.7429 136.438 51.0042 136.093 51.1536 135.664H52.5256C52.3202 136.401 51.9096 137.003 51.2936 137.47C50.6776 137.927 49.9122 138.156 48.9976 138.156C48.2696 138.156 47.6162 137.992 47.0376 137.666C46.4682 137.339 46.0202 136.877 45.6936 136.28C45.3669 135.673 45.2036 134.973 45.2036 134.18C45.2036 133.386 45.3622 132.691 45.6796 132.094C45.9969 131.496 46.4402 131.039 47.0096 130.722C47.5882 130.395 48.2509 130.232 48.9976 130.232C49.7256 130.232 50.3696 130.39 50.9296 130.708C51.4896 131.025 51.9189 131.464 52.2176 132.024C52.5256 132.574 52.6796 133.2 52.6796 133.9ZM51.3636 133.634C51.3636 133.148 51.2562 132.733 51.0416 132.388C50.8269 132.033 50.5329 131.767 50.1596 131.59C49.7956 131.403 49.3896 131.31 48.9416 131.31C48.2976 131.31 47.7469 131.515 47.2896 131.926C46.8416 132.336 46.5849 132.906 46.5196 133.634H51.3636Z" fill="#414146"/>
<path d="M23.266 154.452V156.37H19.262V158.442H22.258V160.304H19.262V164.28H16.868V154.452H23.266ZM29.5363 164.28L27.4923 160.57H26.9183V164.28H24.5243V154.452H28.5423C29.3169 154.452 29.9749 154.587 30.5163 154.858C31.0669 155.128 31.4776 155.502 31.7483 155.978C32.0189 156.444 32.1543 156.967 32.1543 157.546C32.1543 158.199 31.9676 158.782 31.5943 159.296C31.2303 159.809 30.6889 160.173 29.9703 160.388L32.2383 164.28H29.5363ZM26.9183 158.876H28.4023C28.8409 158.876 29.1676 158.768 29.3823 158.554C29.6063 158.339 29.7183 158.036 29.7183 157.644C29.7183 157.27 29.6063 156.976 29.3823 156.762C29.1676 156.547 28.8409 156.44 28.4023 156.44H26.9183V158.876ZM36.0511 156.37V158.358H39.2571V160.206H36.0511V162.362H39.6771V164.28H33.6571V154.452H39.6771V156.37H36.0511ZM43.6253 156.37V158.358H46.8313V160.206H43.6253V162.362H47.2513V164.28H41.2313V154.452H47.2513V156.37H43.6253Z" fill="#02A401"/>
<path d="M61.5845 156.72V156.958H63.3905V157.882H61.5145C61.4305 158.526 61.2439 159.03 60.9545 159.394C60.6745 159.758 60.2639 160.019 59.7225 160.178C59.1905 160.336 58.4812 160.416 57.5945 160.416V161.522C57.5945 162.782 58.1452 163.412 59.2465 163.412C60.3292 163.412 60.8705 162.805 60.8705 161.592H62.0465C62.0372 162.525 61.7899 163.23 61.3045 163.706C60.8192 164.182 60.1285 164.42 59.2325 164.42C58.3085 164.42 57.6039 164.163 57.1185 163.65C56.6425 163.136 56.4045 162.418 56.4045 161.494V159.52C57.4685 159.52 58.2525 159.487 58.7565 159.422C59.2699 159.347 59.6432 159.198 59.8765 158.974C60.1099 158.74 60.2592 158.376 60.3245 157.882H55.7745V156.958H60.3805V156.706V155.446H55.7745V154.508H63.3905V155.446H61.5845V156.72Z" fill="#787887"/>
<path d="M55.0605 159.688H63.9505V160.388H55.0605V159.688Z" fill="#787887"/>
<path d="M69.6621 155.264H64.7481V158.456C64.9628 158.157 65.2801 157.914 65.7001 157.728C66.1201 157.532 66.5728 157.434 67.0581 157.434C67.8328 157.434 68.4628 157.597 68.9481 157.924C69.4334 158.241 69.7788 158.656 69.9841 159.17C70.1988 159.674 70.3061 160.21 70.3061 160.78C70.3061 161.452 70.1801 162.054 69.9281 162.586C69.6761 163.118 69.2888 163.538 68.7661 163.846C68.2528 164.154 67.6134 164.308 66.8481 164.308C65.8681 164.308 65.0748 164.056 64.4681 163.552C63.8614 163.048 63.4928 162.376 63.3621 161.536H64.6081C64.7294 162.068 64.9861 162.483 65.3781 162.782C65.7701 163.08 66.2648 163.23 66.8621 163.23C67.5994 163.23 68.1548 163.01 68.5281 162.572C68.9014 162.124 69.0881 161.536 69.0881 160.808C69.0881 160.08 68.9014 159.52 68.5281 159.128C68.1548 158.726 67.6041 158.526 66.8761 158.526C66.3814 158.526 65.9474 158.647 65.5741 158.89C65.2101 159.123 64.9441 159.445 64.7761 159.856H63.5721V154.144H69.6621V155.264ZM71.9991 159.114C71.9991 157.508 72.2604 156.258 72.7831 155.362C73.3058 154.456 74.2204 154.004 75.5271 154.004C76.8244 154.004 77.7344 154.456 78.2571 155.362C78.7798 156.258 79.0411 157.508 79.0411 159.114C79.0411 160.747 78.7798 162.016 78.2571 162.922C77.7344 163.827 76.8244 164.28 75.5271 164.28C74.2204 164.28 73.3058 163.827 72.7831 162.922C72.2604 162.016 71.9991 160.747 71.9991 159.114ZM77.7811 159.114C77.7811 158.302 77.7251 157.616 77.6131 157.056C77.5104 156.486 77.2911 156.029 76.9551 155.684C76.6284 155.338 76.1524 155.166 75.5271 155.166C74.8924 155.166 74.4071 155.338 74.0711 155.684C73.7444 156.029 73.5251 156.486 73.4131 157.056C73.3104 157.616 73.2591 158.302 73.2591 159.114C73.2591 159.954 73.3104 160.658 73.4131 161.228C73.5251 161.797 73.7444 162.254 74.0711 162.6C74.4071 162.945 74.8924 163.118 75.5271 163.118C76.1524 163.118 76.6284 162.945 76.9551 162.6C77.2911 162.254 77.5104 161.797 77.6131 161.228C77.7251 160.658 77.7811 159.954 77.7811 159.114ZM80.7901 159.114C80.7901 157.508 81.0515 156.258 81.5741 155.362C82.0968 154.456 83.0115 154.004 84.3181 154.004C85.6155 154.004 86.5255 154.456 87.0481 155.362C87.5708 156.258 87.8321 157.508 87.8321 159.114C87.8321 160.747 87.5708 162.016 87.0481 162.922C86.5255 163.827 85.6155 164.28 84.3181 164.28C83.0115 164.28 82.0968 163.827 81.5741 162.922C81.0515 162.016 80.7901 160.747 80.7901 159.114ZM86.5721 159.114C86.5721 158.302 86.5161 157.616 86.4041 157.056C86.3015 156.486 86.0821 156.029 85.7461 155.684C85.4195 155.338 84.9435 155.166 84.3181 155.166C83.6835 155.166 83.1981 155.338 82.8621 155.684C82.5355 156.029 82.3161 156.486 82.2041 157.056C82.1015 157.616 82.0501 158.302 82.0501 159.114C82.0501 159.954 82.1015 160.658 82.2041 161.228C82.3161 161.797 82.5355 162.254 82.8621 162.6C83.1981 162.945 83.6835 163.118 84.3181 163.118C84.9435 163.118 85.4195 162.945 85.7461 162.6C86.0821 162.254 86.3015 161.797 86.4041 161.228C86.5161 160.658 86.5721 159.954 86.5721 159.114Z" fill="#787887"/>
<path d="M62.3401 159.688H88.7141V160.388H62.3401V159.688Z" fill="#787887"/>
<path d="M93.3012 157.744C93.3012 156.792 93.5159 155.938 93.9452 155.182C94.3746 154.417 94.9579 153.819 95.6952 153.39C96.4419 152.961 97.2679 152.746 98.1732 152.746C99.2372 152.746 100.166 153.003 100.959 153.516C101.753 154.029 102.331 154.757 102.695 155.7H101.169C100.899 155.112 100.507 154.659 99.9932 154.342C99.4892 154.025 98.8826 153.866 98.1732 153.866C97.4919 153.866 96.8806 154.025 96.3392 154.342C95.7979 154.659 95.3732 155.112 95.0652 155.7C94.7572 156.279 94.6032 156.96 94.6032 157.744C94.6032 158.519 94.7572 159.2 95.0652 159.788C95.3732 160.367 95.7979 160.815 96.3392 161.132C96.8806 161.449 97.4919 161.608 98.1732 161.608C98.8826 161.608 99.4892 161.454 99.9932 161.146C100.507 160.829 100.899 160.376 101.169 159.788H102.695C102.331 160.721 101.753 161.445 100.959 161.958C100.166 162.462 99.2372 162.714 98.1732 162.714C97.2679 162.714 96.4419 162.504 95.6952 162.084C94.9579 161.655 94.3746 161.062 93.9452 160.306C93.5159 159.55 93.3012 158.696 93.3012 157.744ZM107.938 162.756C107.219 162.756 106.566 162.593 105.978 162.266C105.399 161.939 104.942 161.477 104.606 160.88C104.279 160.273 104.116 159.573 104.116 158.78C104.116 157.996 104.284 157.305 104.62 156.708C104.965 156.101 105.432 155.639 106.02 155.322C106.608 154.995 107.266 154.832 107.994 154.832C108.722 154.832 109.38 154.995 109.968 155.322C110.556 155.639 111.018 156.097 111.354 156.694C111.699 157.291 111.872 157.987 111.872 158.78C111.872 159.573 111.694 160.273 111.34 160.88C110.994 161.477 110.523 161.939 109.926 162.266C109.328 162.593 108.666 162.756 107.938 162.756ZM107.938 161.636C108.395 161.636 108.824 161.529 109.226 161.314C109.627 161.099 109.949 160.777 110.192 160.348C110.444 159.919 110.57 159.396 110.57 158.78C110.57 158.164 110.448 157.641 110.206 157.212C109.963 156.783 109.646 156.465 109.254 156.26C108.862 156.045 108.437 155.938 107.98 155.938C107.513 155.938 107.084 156.045 106.692 156.26C106.309 156.465 106.001 156.783 105.768 157.212C105.534 157.641 105.418 158.164 105.418 158.78C105.418 159.405 105.53 159.933 105.754 160.362C105.987 160.791 106.295 161.113 106.678 161.328C107.06 161.533 107.48 161.636 107.938 161.636ZM117.285 154.818C118.218 154.818 118.974 155.103 119.553 155.672C120.131 156.232 120.421 157.044 120.421 158.108V162.63H119.161V158.29C119.161 157.525 118.969 156.941 118.587 156.54C118.204 156.129 117.681 155.924 117.019 155.924C116.347 155.924 115.81 156.134 115.409 156.554C115.017 156.974 114.821 157.585 114.821 158.388V162.63H113.547V154.958H114.821V156.05C115.073 155.658 115.413 155.355 115.843 155.14C116.281 154.925 116.762 154.818 117.285 154.818ZM125.218 162.756C124.63 162.756 124.102 162.658 123.636 162.462C123.169 162.257 122.8 161.977 122.53 161.622C122.259 161.258 122.11 160.843 122.082 160.376H123.398C123.435 160.759 123.612 161.071 123.93 161.314C124.256 161.557 124.681 161.678 125.204 161.678C125.689 161.678 126.072 161.571 126.352 161.356C126.632 161.141 126.772 160.871 126.772 160.544C126.772 160.208 126.622 159.961 126.324 159.802C126.025 159.634 125.563 159.471 124.938 159.312C124.368 159.163 123.902 159.013 123.538 158.864C123.183 158.705 122.875 158.477 122.614 158.178C122.362 157.87 122.236 157.469 122.236 156.974C122.236 156.582 122.352 156.223 122.586 155.896C122.819 155.569 123.15 155.313 123.58 155.126C124.009 154.93 124.499 154.832 125.05 154.832C125.899 154.832 126.585 155.047 127.108 155.476C127.63 155.905 127.91 156.493 127.948 157.24H126.674C126.646 156.839 126.482 156.517 126.184 156.274C125.894 156.031 125.502 155.91 125.008 155.91C124.55 155.91 124.186 156.008 123.916 156.204C123.645 156.4 123.51 156.657 123.51 156.974C123.51 157.226 123.589 157.436 123.748 157.604C123.916 157.763 124.121 157.893 124.364 157.996C124.616 158.089 124.961 158.197 125.4 158.318C125.95 158.467 126.398 158.617 126.744 158.766C127.089 158.906 127.383 159.121 127.626 159.41C127.878 159.699 128.008 160.077 128.018 160.544C128.018 160.964 127.901 161.342 127.668 161.678C127.434 162.014 127.103 162.28 126.674 162.476C126.254 162.663 125.768 162.756 125.218 162.756ZM136.62 154.958V162.63H135.346V161.496C135.104 161.888 134.763 162.196 134.324 162.42C133.895 162.635 133.419 162.742 132.896 162.742C132.299 162.742 131.762 162.621 131.286 162.378C130.81 162.126 130.432 161.753 130.152 161.258C129.882 160.763 129.746 160.161 129.746 159.452V154.958H131.006V159.284C131.006 160.04 131.198 160.623 131.58 161.034C131.963 161.435 132.486 161.636 133.148 161.636C133.83 161.636 134.366 161.426 134.758 161.006C135.15 160.586 135.346 159.975 135.346 159.172V154.958H136.62ZM140.045 152.27V162.63H138.771V152.27H140.045ZM143.771 156.008V160.53C143.771 160.903 143.85 161.169 144.009 161.328C144.167 161.477 144.443 161.552 144.835 161.552H145.773V162.63H144.625C143.915 162.63 143.383 162.467 143.029 162.14C142.674 161.813 142.497 161.277 142.497 160.53V156.008H141.503V154.958H142.497V153.026H143.771V154.958H145.773V156.008H143.771ZM146.84 158.766C146.84 157.982 146.999 157.296 147.316 156.708C147.634 156.111 148.068 155.649 148.618 155.322C149.178 154.995 149.799 154.832 150.48 154.832C151.152 154.832 151.736 154.977 152.23 155.266C152.725 155.555 153.094 155.919 153.336 156.358V154.958H154.624V162.63H153.336V161.202C153.084 161.65 152.706 162.023 152.202 162.322C151.708 162.611 151.129 162.756 150.466 162.756C149.785 162.756 149.169 162.588 148.618 162.252C148.068 161.916 147.634 161.445 147.316 160.838C146.999 160.231 146.84 159.541 146.84 158.766ZM153.336 158.78C153.336 158.201 153.22 157.697 152.986 157.268C152.753 156.839 152.436 156.512 152.034 156.288C151.642 156.055 151.208 155.938 150.732 155.938C150.256 155.938 149.822 156.05 149.43 156.274C149.038 156.498 148.726 156.825 148.492 157.254C148.259 157.683 148.142 158.187 148.142 158.766C148.142 159.354 148.259 159.867 148.492 160.306C148.726 160.735 149.038 161.067 149.43 161.3C149.822 161.524 150.256 161.636 150.732 161.636C151.208 161.636 151.642 161.524 152.034 161.3C152.436 161.067 152.753 160.735 152.986 160.306C153.22 159.867 153.336 159.359 153.336 158.78ZM158.331 156.008V160.53C158.331 160.903 158.411 161.169 158.569 161.328C158.728 161.477 159.003 161.552 159.395 161.552H160.333V162.63H159.185C158.476 162.63 157.944 162.467 157.589 162.14C157.235 161.813 157.057 161.277 157.057 160.53V156.008H156.063V154.958H157.057V153.026H158.331V154.958H160.333V156.008H158.331ZM162.535 153.712C162.292 153.712 162.087 153.628 161.919 153.46C161.751 153.292 161.667 153.087 161.667 152.844C161.667 152.601 161.751 152.396 161.919 152.228C162.087 152.06 162.292 151.976 162.535 151.976C162.768 151.976 162.964 152.06 163.123 152.228C163.291 152.396 163.375 152.601 163.375 152.844C163.375 153.087 163.291 153.292 163.123 153.46C162.964 153.628 162.768 153.712 162.535 153.712ZM163.151 154.958V162.63H161.877V154.958H163.151ZM168.668 162.756C167.949 162.756 167.296 162.593 166.708 162.266C166.129 161.939 165.672 161.477 165.336 160.88C165.009 160.273 164.846 159.573 164.846 158.78C164.846 157.996 165.014 157.305 165.35 156.708C165.695 156.101 166.162 155.639 166.75 155.322C167.338 154.995 167.996 154.832 168.724 154.832C169.452 154.832 170.11 154.995 170.698 155.322C171.286 155.639 171.748 156.097 172.084 156.694C172.429 157.291 172.602 157.987 172.602 158.78C172.602 159.573 172.425 160.273 172.07 160.88C171.725 161.477 171.253 161.939 170.656 162.266C170.059 162.593 169.396 162.756 168.668 162.756ZM168.668 161.636C169.125 161.636 169.555 161.529 169.956 161.314C170.357 161.099 170.679 160.777 170.922 160.348C171.174 159.919 171.3 159.396 171.3 158.78C171.3 158.164 171.179 157.641 170.936 157.212C170.693 156.783 170.376 156.465 169.984 156.26C169.592 156.045 169.167 155.938 168.71 155.938C168.243 155.938 167.814 156.045 167.422 156.26C167.039 156.465 166.731 156.783 166.498 157.212C166.265 157.641 166.148 158.164 166.148 158.78C166.148 159.405 166.26 159.933 166.484 160.362C166.717 160.791 167.025 161.113 167.408 161.328C167.791 161.533 168.211 161.636 168.668 161.636ZM178.015 154.818C178.949 154.818 179.705 155.103 180.283 155.672C180.862 156.232 181.151 157.044 181.151 158.108V162.63H179.891V158.29C179.891 157.525 179.7 156.941 179.317 156.54C178.935 156.129 178.412 155.924 177.749 155.924C177.077 155.924 176.541 156.134 176.139 156.554C175.747 156.974 175.551 157.585 175.551 158.388V162.63H174.277V154.958H175.551V156.05C175.803 155.658 176.144 155.355 176.573 155.14C177.012 154.925 177.493 154.818 178.015 154.818ZM190.087 156.008H188.477V162.63H187.203V156.008H186.209V154.958H187.203V154.412C187.203 153.553 187.422 152.928 187.861 152.536C188.309 152.135 189.023 151.934 190.003 151.934V152.998C189.443 152.998 189.046 153.11 188.813 153.334C188.589 153.549 188.477 153.908 188.477 154.412V154.958H190.087V156.008ZM198.572 158.5C198.572 158.743 198.558 158.999 198.53 159.27H192.398C192.445 160.026 192.701 160.619 193.168 161.048C193.644 161.468 194.218 161.678 194.89 161.678C195.441 161.678 195.898 161.552 196.262 161.3C196.635 161.039 196.897 160.693 197.046 160.264H198.418C198.213 161.001 197.802 161.603 197.186 162.07C196.57 162.527 195.805 162.756 194.89 162.756C194.162 162.756 193.509 162.593 192.93 162.266C192.361 161.939 191.913 161.477 191.586 160.88C191.259 160.273 191.096 159.573 191.096 158.78C191.096 157.987 191.255 157.291 191.572 156.694C191.889 156.097 192.333 155.639 192.902 155.322C193.481 154.995 194.143 154.832 194.89 154.832C195.618 154.832 196.262 154.991 196.822 155.308C197.382 155.625 197.811 156.064 198.11 156.624C198.418 157.175 198.572 157.8 198.572 158.5ZM197.256 158.234C197.256 157.749 197.149 157.333 196.934 156.988C196.719 156.633 196.425 156.367 196.052 156.19C195.688 156.003 195.282 155.91 194.834 155.91C194.19 155.91 193.639 156.115 193.182 156.526C192.734 156.937 192.477 157.506 192.412 158.234H197.256ZM207.254 158.5C207.254 158.743 207.24 158.999 207.212 159.27H201.08C201.126 160.026 201.383 160.619 201.85 161.048C202.326 161.468 202.9 161.678 203.572 161.678C204.122 161.678 204.58 161.552 204.944 161.3C205.317 161.039 205.578 160.693 205.728 160.264H207.1C206.894 161.001 206.484 161.603 205.868 162.07C205.252 162.527 204.486 162.756 203.572 162.756C202.844 162.756 202.19 162.593 201.612 162.266C201.042 161.939 200.594 161.477 200.268 160.88C199.941 160.273 199.778 159.573 199.778 158.78C199.778 157.987 199.936 157.291 200.254 156.694C200.571 156.097 201.014 155.639 201.584 155.322C202.162 154.995 202.825 154.832 203.572 154.832C204.3 154.832 204.944 154.991 205.504 155.308C206.064 155.625 206.493 156.064 206.792 156.624C207.1 157.175 207.254 157.8 207.254 158.5ZM205.938 158.234C205.938 157.749 205.83 157.333 205.616 156.988C205.401 156.633 205.107 156.367 204.734 156.19C204.37 156.003 203.964 155.91 203.516 155.91C202.872 155.91 202.321 156.115 201.864 156.526C201.416 156.937 201.159 157.506 201.094 158.234H205.938ZM212.192 158.766C212.192 157.982 212.351 157.296 212.668 156.708C212.985 156.111 213.419 155.649 213.97 155.322C214.53 154.995 215.151 154.832 215.832 154.832C216.504 154.832 217.087 154.977 217.582 155.266C218.077 155.555 218.445 155.919 218.688 156.358V154.958H219.976V162.63H218.688V161.202C218.436 161.65 218.058 162.023 217.554 162.322C217.059 162.611 216.481 162.756 215.818 162.756C215.137 162.756 214.521 162.588 213.97 162.252C213.419 161.916 212.985 161.445 212.668 160.838C212.351 160.231 212.192 159.541 212.192 158.766ZM218.688 158.78C218.688 158.201 218.571 157.697 218.338 157.268C218.105 156.839 217.787 156.512 217.386 156.288C216.994 156.055 216.56 155.938 216.084 155.938C215.608 155.938 215.174 156.05 214.782 156.274C214.39 156.498 214.077 156.825 213.844 157.254C213.611 157.683 213.494 158.187 213.494 158.766C213.494 159.354 213.611 159.867 213.844 160.306C214.077 160.735 214.39 161.067 214.782 161.3C215.174 161.524 215.608 161.636 216.084 161.636C216.56 161.636 216.994 161.524 217.386 161.3C217.787 161.067 218.105 160.735 218.338 160.306C218.571 159.867 218.688 159.359 218.688 158.78ZM223.683 156.008V160.53C223.683 160.903 223.762 161.169 223.921 161.328C224.079 161.477 224.355 161.552 224.747 161.552H225.685V162.63H224.537C223.827 162.63 223.295 162.467 222.941 162.14C222.586 161.813 222.409 161.277 222.409 160.53V156.008H221.415V154.958H222.409V153.026H223.683V154.958H225.685V156.008H223.683ZM230.485 158.78C230.485 157.987 230.643 157.296 230.961 156.708C231.278 156.111 231.717 155.649 232.277 155.322C232.846 154.995 233.495 154.832 234.223 154.832C235.165 154.832 235.94 155.061 236.547 155.518C237.163 155.975 237.569 156.61 237.765 157.422H236.393C236.262 156.955 236.005 156.587 235.623 156.316C235.249 156.045 234.783 155.91 234.223 155.91C233.495 155.91 232.907 156.162 232.459 156.666C232.011 157.161 231.787 157.865 231.787 158.78C231.787 159.704 232.011 160.418 232.459 160.922C232.907 161.426 233.495 161.678 234.223 161.678C234.783 161.678 235.249 161.547 235.623 161.286C235.996 161.025 236.253 160.651 236.393 160.166H237.765C237.559 160.95 237.149 161.58 236.533 162.056C235.917 162.523 235.147 162.756 234.223 162.756C233.495 162.756 232.846 162.593 232.277 162.266C231.717 161.939 231.278 161.477 230.961 160.88C230.643 160.283 230.485 159.583 230.485 158.78ZM240.739 152.27V162.63H239.465V152.27H240.739ZM243.568 153.712C243.325 153.712 243.12 153.628 242.952 153.46C242.784 153.292 242.7 153.087 242.7 152.844C242.7 152.601 242.784 152.396 242.952 152.228C243.12 152.06 243.325 151.976 243.568 151.976C243.801 151.976 243.997 152.06 244.156 152.228C244.324 152.396 244.408 152.601 244.408 152.844C244.408 153.087 244.324 153.292 244.156 153.46C243.997 153.628 243.801 153.712 243.568 153.712ZM244.184 154.958V162.63H242.91V154.958H244.184ZM250.093 154.818C251.027 154.818 251.783 155.103 252.361 155.672C252.94 156.232 253.229 157.044 253.229 158.108V162.63H251.969V158.29C251.969 157.525 251.778 156.941 251.395 156.54C251.013 156.129 250.49 155.924 249.827 155.924C249.155 155.924 248.619 156.134 248.217 156.554C247.825 156.974 247.629 157.585 247.629 158.388V162.63H246.355V154.958H247.629V156.05C247.881 155.658 248.222 155.355 248.651 155.14C249.09 154.925 249.571 154.818 250.093 154.818ZM255.968 153.712C255.726 153.712 255.52 153.628 255.352 153.46C255.184 153.292 255.1 153.087 255.1 152.844C255.1 152.601 255.184 152.396 255.352 152.228C255.52 152.06 255.726 151.976 255.968 151.976C256.202 151.976 256.398 152.06 256.556 152.228C256.724 152.396 256.808 152.601 256.808 152.844C256.808 153.087 256.724 153.292 256.556 153.46C256.398 153.628 256.202 153.712 255.968 153.712ZM256.584 154.958V162.63H255.31V154.958H256.584ZM258.28 158.78C258.28 157.987 258.438 157.296 258.756 156.708C259.073 156.111 259.512 155.649 260.072 155.322C260.641 154.995 261.29 154.832 262.018 154.832C262.96 154.832 263.735 155.061 264.342 155.518C264.958 155.975 265.364 156.61 265.56 157.422H264.188C264.057 156.955 263.8 156.587 263.418 156.316C263.044 156.045 262.578 155.91 262.018 155.91C261.29 155.91 260.702 156.162 260.254 156.666C259.806 157.161 259.582 157.865 259.582 158.78C259.582 159.704 259.806 160.418 260.254 160.922C260.702 161.426 261.29 161.678 262.018 161.678C262.578 161.678 263.044 161.547 263.418 161.286C263.791 161.025 264.048 160.651 264.188 160.166H265.56C265.354 160.95 264.944 161.58 264.328 162.056C263.712 162.523 262.942 162.756 262.018 162.756C261.29 162.756 260.641 162.593 260.072 162.266C259.512 161.939 259.073 161.477 258.756 160.88C258.438 160.283 258.28 159.583 258.28 158.78Z" fill="#414146"/>
<mask id="path-9-inside-1_2475_64" fill="white">
<path d="M16 180.88H323.55V220.38H16V180.88Z"/>
</mask>
<path d="M323.55 180.38H322.062V181.38H323.55V180.38ZM320.078 180.38H317.101V181.38H320.078V180.38ZM315.117 180.38H312.141V181.38H315.117V180.38ZM310.157 180.38H307.18V181.38H310.157V180.38ZM305.196 180.38H302.22V181.38H305.196V180.38ZM300.236 180.38H297.259V181.38H300.236V180.38ZM295.275 180.38H292.299V181.38H295.275V180.38ZM290.315 180.38H287.338V181.38H290.315V180.38ZM285.354 180.38H282.378V181.38H285.354V180.38ZM280.394 180.38H277.417V181.38H280.394V180.38ZM275.433 180.38H272.457V181.38H275.433V180.38ZM270.473 180.38H267.497V181.38H270.473V180.38ZM265.512 180.38H262.536V181.38H265.512V180.38ZM260.552 180.38H257.576V181.38H260.552V180.38ZM255.591 180.38H252.615V181.38H255.591V180.38ZM250.631 180.38H247.655V181.38H250.631V180.38ZM245.67 180.38H242.694V181.38H245.67V180.38ZM240.71 180.38H237.734V181.38H240.71V180.38ZM235.749 180.38H232.773V181.38H235.749V180.38ZM230.789 180.38H227.813V181.38H230.789V180.38ZM225.828 180.38H222.852V181.38H225.828V180.38ZM220.868 180.38H217.892V181.38H220.868V180.38ZM215.908 180.38H212.931V181.38H215.908V180.38ZM210.947 180.38H207.971V181.38H210.947V180.38ZM205.987 180.38H203.01V181.38H205.987V180.38ZM201.026 180.38H198.05V181.38H201.026V180.38ZM196.066 180.38H193.089V181.38H196.066V180.38ZM191.105 180.38H188.129V181.38H191.105V180.38ZM186.145 180.38H183.168V181.38H186.145V180.38ZM181.184 180.38H178.208V181.38H181.184V180.38ZM176.224 180.38H173.247V181.38H176.224V180.38ZM171.263 180.38H168.287V181.38H171.263V180.38ZM166.303 180.38H163.326V181.38H166.303V180.38ZM161.342 180.38H158.366V181.38H161.342V180.38ZM156.382 180.38H153.405V181.38H156.382V180.38ZM151.421 180.38H148.445V181.38H151.421V180.38ZM146.461 180.38H143.485V181.38H146.461V180.38ZM141.5 180.38H138.524V181.38H141.5V180.38ZM136.54 180.38H133.564V181.38H136.54V180.38ZM131.579 180.38H128.603V181.38H131.579V180.38ZM126.619 180.38H123.643V181.38H126.619V180.38ZM121.658 180.38H118.682V181.38H121.658V180.38ZM116.698 180.38H113.722V181.38H116.698V180.38ZM111.737 180.38H108.761V181.38H111.737V180.38ZM106.777 180.38H103.801V181.38H106.777V180.38ZM101.816 180.38H98.8402V181.38H101.816V180.38ZM96.856 180.38H93.8797V181.38H96.856V180.38ZM91.8955 180.38H88.9192V181.38H91.8955V180.38ZM86.9351 180.38H83.9588V181.38H86.9351V180.38ZM81.9746 180.38H78.9983V181.38H81.9746V180.38ZM77.0141 180.38H74.0378V181.38H77.0141V180.38ZM72.0536 180.38H69.0773V181.38H72.0536V180.38ZM67.0931 180.38H64.1168V181.38H67.0931V180.38ZM62.1326 180.38H59.1563V181.38H62.1326V180.38ZM57.1722 180.38H54.1959V181.38H57.1722V180.38ZM52.2117 180.38H49.2354V181.38H52.2117V180.38ZM47.2512 180.38H44.2749V181.38H47.2512V180.38ZM42.2907 180.38H39.3144V181.38H42.2907V180.38ZM37.3302 180.38H34.3539V181.38H37.3302V180.38ZM32.3697 180.38H29.3935V181.38H32.3697V180.38ZM27.4093 180.38H24.433V181.38H27.4093V180.38ZM22.4488 180.38H19.4725V181.38H22.4488V180.38ZM17.4883 180.38H16V181.38H17.4883V180.38ZM323.55 179.88H322.062V181.88H323.55V179.88ZM320.078 179.88H317.101V181.88H320.078V179.88ZM315.117 179.88H312.141V181.88H315.117V179.88ZM310.157 179.88H307.18V181.88H310.157V179.88ZM305.196 179.88H302.22V181.88H305.196V179.88ZM300.236 179.88H297.259V181.88H300.236V179.88ZM295.275 179.88H292.299V181.88H295.275V179.88ZM290.315 179.88H287.338V181.88H290.315V179.88ZM285.354 179.88H282.378V181.88H285.354V179.88ZM280.394 179.88H277.417V181.88H280.394V179.88ZM275.433 179.88H272.457V181.88H275.433V179.88ZM270.473 179.88H267.497V181.88H270.473V179.88ZM265.512 179.88H262.536V181.88H265.512V179.88ZM260.552 179.88H257.576V181.88H260.552V179.88ZM255.591 179.88H252.615V181.88H255.591V179.88ZM250.631 179.88H247.655V181.88H250.631V179.88ZM245.67 179.88H242.694V181.88H245.67V179.88ZM240.71 179.88H237.734V181.88H240.71V179.88ZM235.749 179.88H232.773V181.88H235.749V179.88ZM230.789 179.88H227.813V181.88H230.789V179.88ZM225.828 179.88H222.852V181.88H225.828V179.88ZM220.868 179.88H217.892V181.88H220.868V179.88ZM215.908 179.88H212.931V181.88H215.908V179.88ZM210.947 179.88H207.971V181.88H210.947V179.88ZM205.987 179.88H203.01V181.88H205.987V179.88ZM201.026 179.88H198.05V181.88H201.026V179.88ZM196.066 179.88H193.089V181.88H196.066V179.88ZM191.105 179.88H188.129V181.88H191.105V179.88ZM186.145 179.88H183.168V181.88H186.145V179.88ZM181.184 179.88H178.208V181.88H181.184V179.88ZM176.224 179.88H173.247V181.88H176.224V179.88ZM171.263 179.88H168.287V181.88H171.263V179.88ZM166.303 179.88H163.326V181.88H166.303V179.88ZM161.342 179.88H158.366V181.88H161.342V179.88ZM156.382 179.88H153.405V181.88H156.382V179.88ZM151.421 179.88H148.445V181.88H151.421V179.88ZM146.461 179.88H143.485V181.88H146.461V179.88ZM141.5 179.88H138.524V181.88H141.5V179.88ZM136.54 179.88H133.564V181.88H136.54V179.88ZM131.579 179.88H128.603V181.88H131.579V179.88ZM126.619 179.88H123.643V181.88H126.619V179.88ZM121.658 179.88H118.682V181.88H121.658V179.88ZM116.698 179.88H113.722V181.88H116.698V179.88ZM111.737 179.88H108.761V181.88H111.737V179.88ZM106.777 179.88H103.801V181.88H106.777V179.88ZM101.816 179.88H98.8402V181.88H101.816V179.88ZM96.856 179.88H93.8797V181.88H96.856V179.88ZM91.8955 179.88H88.9192V181.88H91.8955V179.88ZM86.9351 179.88H83.9588V181.88H86.9351V179.88ZM81.9746 179.88H78.9983V181.88H81.9746V179.88ZM77.0141 179.88H74.0378V181.88H77.0141V179.88ZM72.0536 179.88H69.0773V181.88H72.0536V179.88ZM67.0931 179.88H64.1168V181.88H67.0931V179.88ZM62.1326 179.88H59.1563V181.88H62.1326V179.88ZM57.1722 179.88H54.1959V181.88H57.1722V179.88ZM52.2117 179.88H49.2354V181.88H52.2117V179.88ZM47.2512 179.88H44.2749V181.88H47.2512V179.88ZM42.2907 179.88H39.3144V181.88H42.2907V179.88ZM37.3302 179.88H34.3539V181.88H37.3302V179.88ZM32.3697 179.88H29.3935V181.88H32.3697V179.88ZM27.4093 179.88H24.433V181.88H27.4093V179.88ZM22.4488 179.88H19.4725V181.88H22.4488V179.88ZM17.4883 179.88H16V181.88H17.4883V179.88Z" fill="#E8E8F0" mask="url(#path-9-inside-1_2475_64)"/>
<rect x="16" y="197.88" width="44.08" height="22.5" rx="3.5" fill="#00A500"/>
<g clip-path="url(#clip0_2475_64)">
<path d="M27.9674 207.63H29.7174V214.63H27.9674C27.6452 214.63 27.384 214.369 27.384 214.047V208.213C27.384 207.891 27.6452 207.63 27.9674 207.63ZM31.0549 206.876L34.7885 203.142C34.8911 203.039 35.0536 203.028 35.1697 203.115L35.6671 203.488C35.9498 203.7 36.0772 204.061 35.99 204.404L35.3172 207.047H39.0507C39.695 207.047 40.2174 207.569 40.2174 208.213V209.441C40.2174 209.593 40.1875 209.744 40.1295 209.885L38.3244 214.269C38.2344 214.487 38.0214 214.63 37.785 214.63H31.4674C31.1452 214.63 30.884 214.369 30.884 214.047V207.288C30.884 207.133 30.9455 206.985 31.0549 206.876Z" fill="white"/>
</g>
<path opacity="0.5" d="M46.4321 207.933C46.6561 207.886 46.8708 207.854 47.0761 207.835C47.2814 207.812 47.4798 207.8 47.6711 207.8C48.2031 207.8 48.6721 207.879 49.0781 208.038C49.4841 208.197 49.8248 208.416 50.1001 208.696C50.3754 208.976 50.5831 209.305 50.7231 209.683C50.8631 210.056 50.9331 210.46 50.9331 210.894C50.9331 211.431 50.8374 211.921 50.6461 212.364C50.4594 212.807 50.1981 213.188 49.8621 213.505C49.5261 213.818 49.1271 214.06 48.6651 214.233C48.2078 214.406 47.7084 214.492 47.1671 214.492C46.8498 214.492 46.5488 214.459 46.2641 214.394C45.9794 214.329 45.7111 214.242 45.4591 214.135C45.2118 214.023 44.9808 213.897 44.7661 213.757C44.5561 213.612 44.3671 213.461 44.1991 213.302L44.7311 212.567C44.8431 212.408 44.9901 212.329 45.1721 212.329C45.2888 212.329 45.4078 212.366 45.5291 212.441C45.6504 212.516 45.7881 212.597 45.9421 212.686C46.1008 212.775 46.2851 212.856 46.4951 212.931C46.7098 213.006 46.9664 213.043 47.2651 213.043C47.5824 213.043 47.8624 212.992 48.1051 212.889C48.3478 212.786 48.5484 212.644 48.7071 212.462C48.8704 212.275 48.9918 212.056 49.0711 211.804C49.1551 211.547 49.1971 211.27 49.1971 210.971C49.1971 210.42 49.0361 209.991 48.7141 209.683C48.3968 209.37 47.9254 209.214 47.3001 209.214C46.8194 209.214 46.3271 209.303 45.8231 209.48L44.7451 209.172L45.5851 204.258H50.5831V204.993C50.5831 205.24 50.5061 205.441 50.3521 205.595C50.1981 205.749 49.9368 205.826 49.5681 205.826H46.7891L46.4321 207.933Z" fill="white"/>
<defs>
<clipPath id="clip0_2475_64">
<rect width="14" height="14" fill="white" transform="translate(26.8 202.38)"/>
</clipPath>
</defs>
</svg>
