<svg width="174" height="172" viewBox="0 0 174 172" fill="none" xmlns="http://www.w3.org/2000/svg">
<g opacity="0.3">
<rect width="4.6972" height="4.6972" rx="1.34409" transform="matrix(-1 0 0 1 173.796 0)" fill="white"/>
<rect width="4.6972" height="4.6972" rx="1.34409" transform="matrix(-1 0 0 1 155.007 0)" fill="white"/>
<rect width="4.6972" height="4.6972" rx="1.34409" transform="matrix(-1 0 0 1 136.218 0)" fill="white"/>
<rect width="4.6972" height="4.6972" rx="1.34409" transform="matrix(-1 0 0 1 117.43 0)" fill="white"/>
<rect width="4.6972" height="4.6972" rx="1.34409" transform="matrix(-1 0 0 1 98.6409 0)" fill="white"/>
<rect width="4.6972" height="4.6972" rx="1.34409" transform="matrix(-1 0 0 1 79.8517 0)" fill="white"/>
<rect width="4.6972" height="4.6972" rx="1.34409" transform="matrix(-1 0 0 1 61.0626 0)" fill="white"/>
<rect width="4.6972" height="4.6972" rx="1.34409" transform="matrix(-1 0 0 1 42.2745 0)" fill="white"/>
<rect width="4.6972" height="4.6972" rx="1.34409" transform="matrix(-1 0 0 1 23.4855 0)" fill="white"/>
<rect width="4.6972" height="4.6972" rx="1.34409" transform="matrix(-1 0 0 1 4.69714 0)" fill="white"/>
<rect width="4.6972" height="4.6972" rx="1.34409" transform="matrix(-1 0 0 1 173.796 18.7886)" fill="white"/>
<rect width="4.6972" height="4.6972" rx="1.34409" transform="matrix(-1 0 0 1 155.007 18.7886)" fill="white"/>
<rect width="4.6972" height="4.6972" rx="1.34409" transform="matrix(-1 0 0 1 136.218 18.7891)" fill="white"/>
<rect width="4.6972" height="4.6972" rx="1.34409" transform="matrix(-1 0 0 1 117.43 18.7886)" fill="white"/>
<rect width="4.6972" height="4.6972" rx="1.34409" transform="matrix(-1 0 0 1 98.6409 18.7886)" fill="white"/>
<rect width="4.6972" height="4.6972" rx="1.34409" transform="matrix(-1 0 0 1 79.8517 18.7891)" fill="white"/>
<rect width="4.6972" height="4.6972" rx="1.34409" transform="matrix(-1 0 0 1 61.0626 18.7891)" fill="white"/>
<rect width="4.6972" height="4.6972" rx="1.34409" transform="matrix(-1 0 0 1 42.2745 18.7891)" fill="white"/>
<rect width="4.6972" height="4.6972" rx="1.34409" transform="matrix(-1 0 0 1 23.4855 18.7891)" fill="white"/>
<rect width="4.6972" height="4.6972" rx="1.34409" transform="matrix(-1 0 0 1 4.69714 18.7886)" fill="white"/>
<rect width="4.6972" height="4.6972" rx="1.34409" transform="matrix(-1 0 0 1 173.796 37.5776)" fill="white"/>
<rect width="4.6972" height="4.6972" rx="1.34409" transform="matrix(-1 0 0 1 155.007 37.5776)" fill="white"/>
<rect width="4.6972" height="4.6972" rx="1.34409" transform="matrix(-1 0 0 1 136.218 37.5776)" fill="white"/>
<rect width="4.6972" height="4.6972" rx="1.34409" transform="matrix(-1 0 0 1 117.43 37.5776)" fill="white"/>
<rect width="4.6972" height="4.6972" rx="1.34409" transform="matrix(-1 0 0 1 98.6409 37.5776)" fill="white"/>
<rect width="4.6972" height="4.6972" rx="1.34409" transform="matrix(-1 0 0 1 79.8517 37.5776)" fill="white"/>
<rect width="4.6972" height="4.6972" rx="1.34409" transform="matrix(-1 0 0 1 61.0626 37.5776)" fill="white"/>
<rect width="4.6972" height="4.6972" rx="1.34409" transform="matrix(-1 0 0 1 42.2745 37.5776)" fill="white"/>
<rect width="4.6972" height="4.6972" rx="1.34409" transform="matrix(-1 0 0 1 23.4855 37.5776)" fill="white"/>
<rect width="4.6972" height="4.6972" rx="1.34409" transform="matrix(-1 0 0 1 4.69714 37.5776)" fill="white"/>
<rect width="4.6972" height="4.6972" rx="1.34409" transform="matrix(-1 0 0 1 173.796 56.3662)" fill="white"/>
<rect width="4.6972" height="4.6972" rx="1.34409" transform="matrix(-1 0 0 1 155.007 56.3662)" fill="white"/>
<rect width="4.6972" height="4.6972" rx="1.34409" transform="matrix(-1 0 0 1 136.218 56.3662)" fill="white"/>
<rect width="4.6972" height="4.6972" rx="1.34409" transform="matrix(-1 0 0 1 117.43 56.3662)" fill="white"/>
<rect width="4.6972" height="4.6972" rx="1.34409" transform="matrix(-1 0 0 1 98.6409 56.3662)" fill="white"/>
<rect width="4.6972" height="4.6972" rx="1.34409" transform="matrix(-1 0 0 1 79.8517 56.3662)" fill="white"/>
<rect width="4.6972" height="4.6972" rx="1.34409" transform="matrix(-1 0 0 1 61.0626 56.3662)" fill="white"/>
<rect width="4.6972" height="4.6972" rx="1.34409" transform="matrix(-1 0 0 1 42.2745 56.3662)" fill="white"/>
<rect width="4.6972" height="4.6972" rx="1.34409" transform="matrix(-1 0 0 1 23.4855 56.3662)" fill="white"/>
<rect width="4.6972" height="4.6972" rx="1.34409" transform="matrix(-1 0 0 1 4.69714 56.3662)" fill="white"/>
<rect width="4.6972" height="4.6972" rx="1.34409" transform="matrix(-1 0 0 1 173.796 75.1553)" fill="white"/>
<rect width="4.6972" height="4.6972" rx="1.34409" transform="matrix(-1 0 0 1 155.007 75.1553)" fill="white"/>
<rect width="4.6972" height="4.6972" rx="1.34409" transform="matrix(-1 0 0 1 136.218 75.1553)" fill="white"/>
<rect width="4.6972" height="4.6972" rx="1.34409" transform="matrix(-1 0 0 1 117.43 75.1553)" fill="white"/>
<rect width="4.6972" height="4.6972" rx="1.34409" transform="matrix(-1 0 0 1 98.6409 75.1553)" fill="white"/>
<rect width="4.6972" height="4.6972" rx="1.34409" transform="matrix(-1 0 0 1 79.8517 75.1553)" fill="white"/>
<rect width="4.6972" height="4.6972" rx="1.34409" transform="matrix(-1 0 0 1 61.0626 75.1553)" fill="white"/>
<rect width="4.6972" height="4.6972" rx="1.34409" transform="matrix(-1 0 0 1 42.2745 75.1553)" fill="white"/>
<rect width="4.6972" height="4.6972" rx="1.34409" transform="matrix(-1 0 0 1 23.4855 75.1553)" fill="white"/>
<rect width="4.6972" height="4.6972" rx="1.34409" transform="matrix(-1 0 0 1 4.69714 75.1553)" fill="white"/>
<rect width="4.6972" height="4.6972" rx="1.34409" transform="matrix(-1 0 0 1 173.796 93.9438)" fill="white"/>
<rect width="4.6972" height="4.6972" rx="1.34409" transform="matrix(-1 0 0 1 155.007 93.9438)" fill="white"/>
<rect width="4.6972" height="4.6972" rx="1.34409" transform="matrix(-1 0 0 1 136.218 93.9438)" fill="white"/>
<rect width="4.6972" height="4.6972" rx="1.34409" transform="matrix(-1 0 0 1 117.43 93.9438)" fill="white"/>
<rect width="4.6972" height="4.6972" rx="1.34409" transform="matrix(-1 0 0 1 98.6409 93.9438)" fill="white"/>
<rect width="4.6972" height="4.6972" rx="1.34409" transform="matrix(-1 0 0 1 79.8517 93.9438)" fill="white"/>
<rect width="4.6972" height="4.6972" rx="1.34409" transform="matrix(-1 0 0 1 61.0626 93.9438)" fill="white"/>
<rect width="4.6972" height="4.6972" rx="1.34409" transform="matrix(-1 0 0 1 42.2745 93.9438)" fill="white"/>
<rect width="4.6972" height="4.6972" rx="1.34409" transform="matrix(-1 0 0 1 23.4855 93.9438)" fill="white"/>
<rect width="4.6972" height="4.6972" rx="1.34409" transform="matrix(-1 0 0 1 4.69714 93.9438)" fill="white"/>
<rect width="4.6972" height="4.6972" rx="1.34409" transform="matrix(-1 0 0 1 173.796 112.732)" fill="white"/>
<rect width="4.6972" height="4.6972" rx="1.34409" transform="matrix(-1 0 0 1 173.796 130.854)" fill="white"/>
<rect width="4.6972" height="4.6972" rx="1.34409" transform="matrix(-1 0 0 1 173.796 148.975)" fill="white"/>
<rect width="4.6972" height="4.6972" rx="1.34409" transform="matrix(-1 0 0 1 173.796 167.096)" fill="white"/>
<rect width="4.6972" height="4.6972" rx="1.34409" transform="matrix(-1 0 0 1 155.007 112.732)" fill="white"/>
<rect width="4.6972" height="4.6972" rx="1.34409" transform="matrix(-1 0 0 1 155.007 130.854)" fill="white"/>
<rect width="4.6972" height="4.6972" rx="1.34409" transform="matrix(-1 0 0 1 155.007 148.975)" fill="white"/>
<rect width="4.6972" height="4.6972" rx="1.34409" transform="matrix(-1 0 0 1 155.007 167.096)" fill="white"/>
<rect width="4.6972" height="4.6972" rx="1.34409" transform="matrix(-1 0 0 1 136.218 112.732)" fill="white"/>
<rect width="4.6972" height="4.6972" rx="1.34409" transform="matrix(-1 0 0 1 136.218 130.854)" fill="white"/>
<rect width="4.6972" height="4.6972" rx="1.34409" transform="matrix(-1 0 0 1 136.218 148.975)" fill="white"/>
<rect width="4.6972" height="4.6972" rx="1.34409" transform="matrix(-1 0 0 1 136.218 167.096)" fill="white"/>
<rect width="4.6972" height="4.6972" rx="1.34409" transform="matrix(-1 0 0 1 117.43 112.732)" fill="white"/>
<rect width="4.6972" height="4.6972" rx="1.34409" transform="matrix(-1 0 0 1 117.43 130.854)" fill="white"/>
<rect width="4.6972" height="4.6972" rx="1.34409" transform="matrix(-1 0 0 1 117.43 148.975)" fill="white"/>
<rect width="4.6972" height="4.6972" rx="1.34409" transform="matrix(-1 0 0 1 117.43 167.096)" fill="white"/>
<rect width="4.6972" height="4.6972" rx="1.34409" transform="matrix(-1 0 0 1 98.6409 112.732)" fill="white"/>
<rect width="4.6972" height="4.6972" rx="1.34409" transform="matrix(-1 0 0 1 98.6409 130.854)" fill="white"/>
<rect width="4.6972" height="4.6972" rx="1.34409" transform="matrix(-1 0 0 1 98.6409 148.975)" fill="white"/>
<rect width="4.6972" height="4.6972" rx="1.34409" transform="matrix(-1 0 0 1 98.6409 167.096)" fill="white"/>
<rect width="4.6972" height="4.6972" rx="1.34409" transform="matrix(-1 0 0 1 79.8517 112.732)" fill="white"/>
<rect width="4.6972" height="4.6972" rx="1.34409" transform="matrix(-1 0 0 1 79.8517 130.854)" fill="white"/>
<rect width="4.6972" height="4.6972" rx="1.34409" transform="matrix(-1 0 0 1 79.8517 148.975)" fill="white"/>
<rect width="4.6972" height="4.6972" rx="1.34409" transform="matrix(-1 0 0 1 79.8517 167.096)" fill="white"/>
<rect width="4.6972" height="4.6972" rx="1.34409" transform="matrix(-1 0 0 1 61.0626 112.732)" fill="white"/>
<rect width="4.6972" height="4.6972" rx="1.34409" transform="matrix(-1 0 0 1 61.0626 130.854)" fill="white"/>
<rect width="4.6972" height="4.6972" rx="1.34409" transform="matrix(-1 0 0 1 61.0626 148.975)" fill="white"/>
<rect width="4.6972" height="4.6972" rx="1.34409" transform="matrix(-1 0 0 1 61.0626 167.096)" fill="white"/>
<rect width="4.6972" height="4.6972" rx="1.34409" transform="matrix(-1 0 0 1 42.2745 112.732)" fill="white"/>
<rect width="4.6972" height="4.6972" rx="1.34409" transform="matrix(-1 0 0 1 42.2745 130.854)" fill="white"/>
<rect width="4.6972" height="4.6972" rx="1.34409" transform="matrix(-1 0 0 1 42.2745 148.975)" fill="white"/>
<rect width="4.6972" height="4.6972" rx="1.34409" transform="matrix(-1 0 0 1 42.2745 167.096)" fill="white"/>
<rect width="4.6972" height="4.6972" rx="1.34409" transform="matrix(-1 0 0 1 23.4855 112.732)" fill="white"/>
<rect width="4.6972" height="4.6972" rx="1.34409" transform="matrix(-1 0 0 1 23.4855 130.854)" fill="white"/>
<rect width="4.6972" height="4.6972" rx="1.34409" transform="matrix(-1 0 0 1 23.4855 148.975)" fill="white"/>
<rect width="4.6972" height="4.6972" rx="1.34409" transform="matrix(-1 0 0 1 23.4855 167.096)" fill="white"/>
<rect width="4.6972" height="4.6972" rx="1.34409" transform="matrix(-1 0 0 1 4.69714 112.732)" fill="white"/>
<rect width="4.6972" height="4.6972" rx="1.34409" transform="matrix(-1 0 0 1 4.69714 130.854)" fill="white"/>
<rect width="4.6972" height="4.6972" rx="1.34409" transform="matrix(-1 0 0 1 4.69714 148.975)" fill="white"/>
<rect width="4.6972" height="4.6972" rx="1.34409" transform="matrix(-1 0 0 1 4.69714 167.096)" fill="white"/>
</g>
</svg>
